<?xml version="1.0" encoding="utf-8"?>
<!-- Generator: Adobe Illustrator 25.2.3, SVG Export Plug-In . SVG Version: 6.00 Build 0)  -->
<svg version="1.1" id="Layer_1" xmlns="http://www.w3.org/2000/svg" xmlns:xlink="http://www.w3.org/1999/xlink" x="0px" y="0px"
	 viewBox="0 0 250.6 281.5" style="enable-background:new 0 0 250.6 281.5;" xml:space="preserve">
<style type="text/css">
	.st0{fill:#97EAF2;stroke:#AC4351;stroke-width:5;stroke-miterlimit:10;}
	.st1{fill:#52D3DF;stroke:#AC4351;stroke-width:5;stroke-miterlimit:10;}
	.st2{fill:#52D3DF;}
	.st3{fill:#97EAF2;stroke:#AC4351;stroke-width:5;stroke-linecap:round;stroke-miterlimit:10;}
	.st4{fill:#DFC153;stroke:#AC4351;stroke-width:2;stroke-miterlimit:10;}
	.st5{fill:#52D3DF;stroke:#AC4351;stroke-width:5;stroke-linecap:round;stroke-linejoin:round;}
	.st6{fill:#52D3DF;stroke:#AC4351;stroke-width:5;stroke-linecap:round;stroke-miterlimit:10;}
	.st7{fill:#DFC153;stroke:#AC4351;stroke-width:5;stroke-miterlimit:10;}
	.st8{fill:#DFC153;stroke:#AC4351;stroke-width:5;stroke-linecap:round;stroke-linejoin:round;}
	.st9{fill:#DFC153;stroke:#AC4351;stroke-width:5;stroke-linejoin:round;}
	.st10{fill:none;stroke:#AC4351;stroke-width:5;stroke-linecap:round;stroke-linejoin:round;}
	.st11{fill:none;stroke:#DFC153;stroke-width:5;stroke-linecap:round;stroke-linejoin:round;}
	.st12{fill:#52D3DF;stroke:#DFC153;stroke-width:5;stroke-linecap:round;stroke-linejoin:round;}
</style>
<g id="Layer_2_1_">
	<g id="Layer_4">
		<g id="backpack">
			<path class="st0" d="M23.1,83.8C24.6,64.8,37.5,48,54,38.4s35.9-12.8,55-12.7c14.2,0,29.3,2.2,40,11.4
				c14.8,12.6,17.1,34.4,15.6,53.7s0.6,47.2-0.3,58.2c-1.4,18.3-2.2,26.1,2.2,35.9c5.7,12.7,7.3,26.8,8.9,40.6
				c1.2,11,2.2,23-4.1,32.1c-5.9,8.3-17,11.9-27.1,10.5c-10.1-1.5-19.1-7.1-24.8-15.6c-0.4-6.4-4.7-11.9-9.8-15.8
				s-10.9-6.5-16.3-9.9c-23.1-14.3-36.5-40.2-44.9-66S35.2,107.7,23.1,83.8z"/>
			<path class="st1" d="M24.3,73.3C42.1,57,64.8,47.2,88.9,45.4c9.2-0.7,18.9,0,26.7,4.9c7.6,4.7,12.4,13.1,15,21.7
				c9.9,33.1-10.3,69.4-1,102.7c2.1,7.6,5.8,14.9,6.7,22.8c1.2,10.7-2.7,21.2-5.4,31.6s-4,22.3,1.9,31.3c-5,2.7-11.3,0.6-16.1-2.4
				s-9.3-7-14.8-8.4c-7-1.8-14.3,0.8-21.5,2c-25,4.2-50.7-10.5-64.1-32s-16-48.4-12.2-73.4S17.5,97.4,24.3,73.3z"/>
			<path class="st1" d="M20.9,190.2c0.1,6.4,0.3,12.8,2.1,18.9S28.5,221,34.1,224c5.2,2.7,11.2,2.8,17,2.8l48.9,0.1
				c5.1,0,10.7-0.2,14.4-3.6c5.9-5.4,3.7-15.1,1-22.6l-0.3,0.2"/>
			<path class="st2" d="M67,33.7c-3.9,2.1-7.4,4.9-10.4,8.1c10.7,0.4,21.2-1.6,31.8-3.2s21.3-2.9,31.8-1.3s21,6.5,27.2,15.2
				c5.8,8.1,7.3,18.6,6.3,28.5s-4.1,19.4-6.9,29c-3.3,11.1-6.1,22.7-5.1,34.2c1,11.3,5.5,21.9,8.6,32.8s4.8,22.9,0.8,34.2
				c8.5,15.1,6.3,35.4-5.2,48.3c-1.2,1.4-2.6,3.1-1.9,4.8c0.6,1.1,1.7,1.8,3,2c7.3,1.7,15.2-1.9,19.9-7.7s6.9-13.4,7.4-20.9
				c1.7-22.9-9.3-44.6-12.6-67.3c-3.7-25.5,2.4-51.4,3.6-77.2c0.5-9.8,0.2-19.8-2.4-29.3s-7.5-18.5-15.1-24.7
				c-7.4-6-16.8-8.9-26.1-10.5C101.2,25.2,82.7,28.3,67,33.7z"/>
			<path class="st3" d="M21.2,189.4c4.7,0.8,9.4,1.6,14.1,2.1l82.3,9.6c0.1-11.6-0.5-24.9-9.3-32.4c-4.9-4.2-11.4-5.8-17.7-7.2
				l-43.5-10.1c-7.6-1.8-15.8-3.4-22.8-0.1c-6.8,3.3-10.8,10.9-11.2,18.4C12.5,177.2,15.6,184.5,21.2,189.4z"/>
			<path class="st1" d="M199.8,240.9c10.7,6.5,24.6,5.1,35.8,10.8c4.3,2.2,8,5.3,10.9,9.2L248,276c0.2,0.8,0,1.6-0.4,2.4
				c-0.7,0.8-1.9,0.7-2.9,0.5c-6.8-1.4-12.7-5.5-18.1-9.9s-10.6-9.2-16.8-12.3s-13.9-4.3-20.1-1.1
				C189,253.6,188.3,251.6,199.8,240.9z"/>
			<path class="st4" d="M235,261.7c-1.9,0.5-3.1,2.5-2.5,4.4c0,0.1,0,0.2,0.1,0.2c0.8,1.8,3,2.6,4.9,1.8c0,0,0.1,0,0.1-0.1
				c1.8-1.1,2.3-3.4,1.2-5.2c0,0,0,0,0,0C237.6,261.3,235,260.9,235,261.7z"/>
			<path class="st5" d="M164.9,68.3c0.5,25.6-2.8,51.2-2.3,76.8c0.2,9,0.4,18,2.3,26.7c2.6,11.8,11.4,23.7,8.8,35.5
				c5.1-8.3,2.8-18.3,3.4-27.9c0.8-12.7,1.6-25.3,2.4-38c0.8-13.1,1.6-26.3-0.4-39.2S175.8,76.5,164.9,68.3z"/>
			<path class="st1" d="M151.3,38.1c10.1,9.7,17.3,22.5,25.5,33.8s14.5,24.4,15.8,38.4c2.4,25-3.5,93.7-4.8,103.5
				c-2.3,16.7-18.5,29.2-19.9,46c10.9,3.4,23.1-2.1,30.1-11s9.7-20.6,10.2-31.9s-1-22.7-1.1-34.1c-0.4-23.8,4.9-47.5,4.9-71.3
				s-6.4-49.5-25.1-64.3C175.2,38,162.5,31,151.3,38.1z"/>
			<path class="st6" d="M140.1,31c4.4,1.6,1.8-10.5-1.5-14.2s-8-5.3-12.5-6.8C114.3,6.1,102,2.1,89.8,4.2S65.4,16,63.9,29.7
				c6.7-2.6,13.9-4,21.1-4.1c-0.6-2.8-0.4-5.8,1.9-7.1s5-1.5,7.6-1.6l24.9-1.1c2.9-0.1,6.4,0.1,7.8,2.9c0.7,1.3,0.7,3,1.1,4.4
				c0.9,2.9,3.2,5.2,6.1,6.1C137.1,30.1,139.2,30.6,140.1,31z"/>
			<path class="st6" d="M103.3,151.8L92,152c-4.3,18.1-6.6,36.7-7,55.3l8.2-1.1C97,188,100.8,169.9,103.3,151.8z"/>
			<path class="st6" d="M52.1,143.4l-11.3,0.3c-4.3,18.1-6.6,36.7-7,55.3l8.2-1.1C45.8,179.7,49.5,161.5,52.1,143.4z"/>
			<path class="st7" d="M164.9,96.3c5,0.2,6.5,3.4,11.5,3.6c4.3,21.1,4.2,42.9-0.2,64c-1.6,7.7-3.9,15.8-1.7,23.4
				c0.6,2.1,1.6,4.2,1.5,6.3s-1.7,4.5-3.8,4.4c-1.9-0.1-3.3-1.9-4.1-3.6c-6.3-12.7-4.7-28.5-5.4-42.7
				C161.6,133.2,162.3,114.7,164.9,96.3z"/>
			<path class="st7" d="M95.6,2.6l-1.4,12.3c7.1,1.6,14.4,2.2,21.6,1.7l1-11.6C109.9,2.9,102.8,2.1,95.6,2.6z"/>
			<path class="st7" d="M208.3,83.7c-7.3,2.1-13.8,3.6-21,5.7c8.2,12.8,5.6,29.6,2.7,44.6c-6.6,34.3-0.9,60.7-2.3,71.3
				c-0.6,4.5-2.4,9.1-1.1,13.5c2.4,8,9.1,10.8,17.5,11.2C203.3,215.7,225.2,130.4,208.3,83.7z"/>
			<path class="st8" d="M41.2,163.2H30.8l1,13.4c6.9,0.7,13.6,2.1,20.2,4.2c-1.6-3.8,2.6-7.9,1.8-12c-0.5-2.4-2.7-4.2-5.1-4.9
				S43.8,163.5,41.2,163.2z"/>
			<path class="st9" d="M87.9,170.4l-6.9,1.3l-0.3,12c7.9,1.9,16,2.8,24.1,2.7c-0.7-4.5-0.8-9.1-0.3-13.6
				C97.2,172.9,89.9,172.2,87.9,170.4z"/>
			<path class="st10" d="M32.4,63c1.1,5.8,3.1,11.4,5.8,16.6"/>
			<path class="st10" d="M49.8,51.7c-0.1,5.7,0.1,11.4,0.7,17"/>
			<path class="st10" d="M73.8,43.1c-3.7,6.6-7,13.3-9.9,20.3"/>
			<path class="st10" d="M89.3,43.2l-5.7,18.3"/>
			<path class="st10" d="M100.9,68.6c5.6-5.7,11.8-10.7,18.5-14.9"/>
			<path class="st10" d="M112.2,87.2c7.3-4.3,15-7.8,23-10.4"/>
			<path class="st10" d="M117.1,108c6.5,0.1,13-1,19.1-3"/>
			<path class="st10" d="M112.3,133.7l18.1-4"/>
			<path class="st10" d="M114,153.2c4.6-0.5,9-1.6,13.2-3.3"/>
			<path class="st10" d="M29.8,83.4c6.8-20.3,51-25.3,51-25.3c11.8,0.1,23.1,5,31.2,13.7c11,12.1,12.7,29.9,11.8,46.3
				c-0.7,14.9-3.1,29.6-6.9,43.9"/>
			<path class="st10" d="M59.9,40.7c16.2-2,32.6-2.8,48.9-2.4c13.8,0.3,29.3,2.4,37.4,13.5c6.5,8.9,6.1,21,4.9,32
				c-2.1,18.8-5.9,37.3-11.3,55.4"/>
			<path class="st10" d="M153.6,225.8c-0.9-20.2-2.6-40.4-5.1-60.5"/>
			<path class="st5" d="M149.5,248.1c3.9-4.2,6.4-9.5,7.3-15.1"/>
			<path class="st5" d="M157.2,252.9c2.8-3.1,4.6-7,5.2-11.1"/>
			<path class="st11" d="M57.3,80.8c-2.6,3.3-6.9,4.5-10.8,5.9s-8.1,3.8-9.1,7.8c-0.3,1.6-0.3,3.3-0.1,4.9l2.3,24.3"/>
			<path class="st12" d="M57.1,122c11.3-8.8,21.8-18.7,31.2-29.4"/>
			<path class="st11" d="M99.9,88.2c0.7,10.6,2.5,21.2,5.2,31.5c-12,6-24.4,11.2-37.2,15.5"/>
			<path class="st10" d="M61.3,83.1c-2.6,3.3-6.9,4.5-10.8,5.9s-8.1,3.7-9.1,7.8c-0.3,1.6-0.3,3.3-0.1,4.9l2.3,24.3"/>
			<path class="st5" d="M52.5,120.9c11.3-8.8,21.8-18.7,31.2-29.4"/>
			<path class="st10" d="M104,90.4c0.7,10.6,2.5,21.2,5.2,31.5c-12,6-24.5,11.2-37.2,15.5"/>
		</g>
	</g>
</g>
</svg>
