<svg xmlns="http://www.w3.org/2000/svg" viewBox="0 0 752.77 806.59"><defs><style>.cls-1,.cls-13,.cls-14,.cls-21,.cls-23,.cls-24,.cls-33,.cls-34,.cls-36{fill:none;}.cls-1,.cls-10,.cls-11,.cls-12,.cls-13,.cls-16,.cls-17,.cls-18,.cls-2,.cls-21,.cls-22,.cls-25,.cls-26,.cls-27,.cls-28,.cls-3,.cls-30,.cls-35,.cls-36,.cls-37,.cls-38,.cls-39,.cls-4,.cls-40,.cls-6,.cls-7,.cls-8,.cls-9{stroke:#5d374c;}.cls-1,.cls-10,.cls-2,.cls-3,.cls-31,.cls-4,.cls-6,.cls-7,.cls-9{stroke-miterlimit:10;}.cls-1,.cls-10,.cls-11,.cls-12,.cls-13,.cls-14,.cls-15,.cls-2,.cls-3,.cls-4,.cls-6,.cls-8,.cls-9{stroke-width:5px;}.cls-2,.cls-30{fill:#fdf8c1;}.cls-3,.cls-6{fill:#a2dbe7;}.cls-15,.cls-4,.cls-5,.cls-8,.cls-9{fill:#62c9d7;}.cls-11,.cls-13,.cls-14,.cls-15,.cls-16,.cls-17,.cls-18,.cls-21,.cls-22,.cls-23,.cls-24,.cls-25,.cls-26,.cls-27,.cls-28,.cls-29,.cls-30,.cls-33,.cls-34,.cls-35,.cls-36,.cls-37,.cls-38,.cls-39,.cls-40,.cls-6,.cls-8,.cls-9{stroke-linecap:round;}.cls-10,.cls-11,.cls-12,.cls-7{fill:#dfc152;}.cls-35,.cls-36,.cls-39,.cls-7{stroke-width:2px;}.cls-11,.cls-12,.cls-13,.cls-14,.cls-15,.cls-16,.cls-17,.cls-18,.cls-21,.cls-22,.cls-23,.cls-24,.cls-25,.cls-26,.cls-27,.cls-28,.cls-29,.cls-30,.cls-33,.cls-34,.cls-35,.cls-36,.cls-37,.cls-38,.cls-39,.cls-40,.cls-8{stroke-linejoin:round;}.cls-14,.cls-15{stroke:#dfc152;}.cls-16,.cls-31{fill:#a7523a;}.cls-16,.cls-17,.cls-18,.cls-21,.cls-22,.cls-23,.cls-25,.cls-26,.cls-27,.cls-28,.cls-29,.cls-30,.cls-33,.cls-34{stroke-width:3px;}.cls-17,.cls-40{fill:#fbcdc7;}.cls-18,.cls-20,.cls-38{fill:#44a3ac;}.cls-19{fill:#63c9d7;}.cls-22{fill:#e1b3bf;}.cls-23,.cls-24{stroke:#f4f0f1;}.cls-24{stroke-width:10px;}.cls-25{fill:#ba6853;}.cls-26{fill:#e1acba;}.cls-27,.cls-29{fill:#b4dbdf;}.cls-28{fill:#f7f1f1;}.cls-29{stroke:#b4dbdf;}.cls-31{stroke:#6d3324;}.cls-32{fill:#f8aba1;}.cls-33,.cls-34{stroke:#a7523a;}.cls-33{opacity:0.6;}.cls-35,.cls-41{fill:#fbf1f1;}.cls-37,.cls-39{fill:#d8d9d8;}.cls-37,.cls-38{stroke-width:2px;}.cls-40{stroke-width:2px;}</style></defs><g id="Layer_2" data-name="Layer 2"><g id="Layer_1-2" data-name="Layer 1"><g id="Layer_2-2" data-name="Layer 2"><g id="Layer_7" data-name="Layer 7"><g id="sun_accentLines" data-name="sun accentLines"><path class="cls-1" d="M376,749.5C169.72,749.5,2.5,582.28,2.5,376"/><path class="cls-1" d="M376,2.5C582.28,2.5,749.5,169.72,749.5,376"/><path class="cls-1" d="M432.82,747.28q-17.13,1.9-34,2.22"/><path class="cls-1" d="M750.27,385.19q0,17.22-1.54,34.06"/></g><circle id="sun" class="cls-2" cx="376" cy="376" r="354.37"/></g></g><g id="Layer_2-3" data-name="Layer 2"><g id="Layer_4" data-name="Layer 4"><g id="backpack"><path class="cls-3" d="M139.62,510.62c1.5-19,14.4-35.8,30.9-45.4s35.9-12.8,55-12.7c14.2,0,29.3,2.2,40,11.4,14.8,12.6,17.1,34.4,15.6,53.7s.6,47.2-.3,58.2c-1.4,18.3-2.2,26.1,2.2,35.9,5.7,12.7,7.3,26.8,8.9,40.6,1.2,11,2.2,23-4.1,32.1-5.9,8.3-17,11.9-27.1,10.5a36.16,36.16,0,0,1-24.8-15.6c-.4-6.4-4.7-11.9-9.8-15.8s-10.9-6.5-16.3-9.9c-23.1-14.3-36.5-40.2-44.9-66S151.72,534.52,139.62,510.62Z"/><path class="cls-4" d="M140.82,500.12a107.37,107.37,0,0,1,64.6-27.9c9.2-.7,18.9,0,26.7,4.9,7.6,4.7,12.4,13.1,15,21.7,9.9,33.1-10.3,69.4-1,102.7,2.1,7.6,5.8,14.9,6.7,22.8,1.2,10.7-2.7,21.2-5.4,31.6s-4,22.3,1.9,31.3c-5,2.7-11.3.6-16.1-2.4s-9.3-7-14.8-8.4c-7-1.8-14.3.8-21.5,2-25,4.2-50.7-10.5-64.1-32s-16-48.4-12.2-73.4S134,524.22,140.82,500.12Z"/><path class="cls-4" d="M137.42,617c.1,6.4.3,12.8,2.1,18.9s5.5,11.9,11.1,14.9c5.2,2.7,11.2,2.8,17,2.8l48.9.1c5.1,0,10.7-.2,14.4-3.6,5.9-5.4,3.7-15.1,1-22.6l-.3.2"/><path class="cls-5" d="M183.52,460.52a41,41,0,0,0-10.4,8.1c10.7.4,21.2-1.6,31.8-3.2s21.3-2.9,31.8-1.3,21,6.5,27.2,15.2c5.8,8.1,7.3,18.6,6.3,28.5s-4.1,19.4-6.9,29c-3.3,11.1-6.1,22.7-5.1,34.2,1,11.3,5.5,21.9,8.6,32.8s4.8,22.9.8,34.2c8.5,15.1,6.3,35.4-5.2,48.3-1.2,1.4-2.6,3.1-1.9,4.8a4,4,0,0,0,3,2c7.3,1.7,15.2-1.9,19.9-7.7s6.9-13.4,7.4-20.9c1.7-22.9-9.3-44.6-12.6-67.3-3.7-25.5,2.4-51.4,3.6-77.2.5-9.8.2-19.8-2.4-29.3s-7.5-18.5-15.1-24.7c-7.4-6-16.8-8.9-26.1-10.5C217.72,452,199.22,455.12,183.52,460.52Z"/><path class="cls-6" d="M137.72,616.22c4.7.8,9.4,1.6,14.1,2.1l82.3,9.6c.1-11.6-.5-24.9-9.3-32.4-4.9-4.2-11.4-5.8-17.7-7.2l-43.5-10.1c-7.6-1.8-15.8-3.4-22.8-.1-6.8,3.3-10.8,10.9-11.2,18.4A23.76,23.76,0,0,0,137.72,616.22Z"/><path class="cls-4" d="M316.32,667.72c10.7,6.5,24.6,5.1,35.8,10.8a31.21,31.21,0,0,1,10.9,9.2l1.5,15.1a3.44,3.44,0,0,1-.4,2.4c-.7.8-1.9.7-2.9.5-6.8-1.4-12.7-5.5-18.1-9.9s-10.6-9.2-16.8-12.3-13.9-4.3-20.1-1.1C305.52,680.42,304.82,678.42,316.32,667.72Z"/><path class="cls-7" d="M351.52,688.52a3.52,3.52,0,0,0-2.5,4.4c0,.1,0,.2.1.2a3.75,3.75,0,0,0,4.9,1.8.1.1,0,0,0,.1-.1,3.74,3.74,0,0,0,1.2-5.2h0C354.12,688.12,351.52,687.72,351.52,688.52Z"/><path class="cls-8" d="M281.42,495.12c.5,25.6-2.8,51.2-2.3,76.8.2,9,.4,18,2.3,26.7,2.6,11.8,11.4,23.7,8.8,35.5,5.1-8.3,2.8-18.3,3.4-27.9.8-12.7,1.6-25.3,2.4-38,.8-13.1,1.6-26.3-.4-39.2S292.32,503.32,281.42,495.12Z"/><path class="cls-4" d="M267.82,464.92c10.1,9.7,17.3,22.5,25.5,33.8s14.5,24.4,15.8,38.4c2.4,25-3.5,93.7-4.8,103.5-2.3,16.7-18.5,29.2-19.9,46,10.9,3.4,23.1-2.1,30.1-11s9.7-20.6,10.2-31.9-1-22.7-1.1-34.1c-.4-23.8,4.9-47.5,4.9-71.3s-6.4-49.5-25.1-64.3C291.72,464.82,279,457.82,267.82,464.92Z"/><path class="cls-9" d="M256.62,457.82c4.4,1.6,1.8-10.5-1.5-14.2s-8-5.3-12.5-6.8c-11.8-3.9-24.1-7.9-36.3-5.8s-24.4,11.8-25.9,25.5a60.89,60.89,0,0,1,21.1-4.1c-.6-2.8-.4-5.8,1.9-7.1s5-1.5,7.6-1.6l24.9-1.1c2.9-.1,6.4.1,7.8,2.9.7,1.3.7,3,1.1,4.4a9.3,9.3,0,0,0,6.1,6.1C253.62,456.92,255.72,457.42,256.62,457.82Z"/><path class="cls-9" d="M219.82,578.62l-11.3.2a264.14,264.14,0,0,0-7,55.3l8.2-1.1C213.52,614.82,217.32,596.72,219.82,578.62Z"/><path class="cls-9" d="M168.62,570.22l-11.3.3a264.14,264.14,0,0,0-7,55.3l8.2-1.1C162.32,606.52,166,588.32,168.62,570.22Z"/><path class="cls-10" d="M281.42,523.12c5,.2,6.5,3.4,11.5,3.6a158.57,158.57,0,0,1-.2,64c-1.6,7.7-3.9,15.8-1.7,23.4.6,2.1,1.6,4.2,1.5,6.3s-1.7,4.5-3.8,4.4c-1.9-.1-3.3-1.9-4.1-3.6-6.3-12.7-4.7-28.5-5.4-42.7A277.55,277.55,0,0,1,281.42,523.12Z"/><path class="cls-10" d="M212.12,429.42l-1.4,12.3a74.86,74.86,0,0,0,21.6,1.7l1-11.6A58.47,58.47,0,0,0,212.12,429.42Z"/><path class="cls-10" d="M324.82,510.52c-7.3,2.1-13.8,3.6-21,5.7,8.2,12.8,5.6,29.6,2.7,44.6-6.6,34.3-.9,60.7-2.3,71.3-.6,4.5-2.4,9.1-1.1,13.5,2.4,8,9.1,10.8,17.5,11.2C319.82,642.52,341.72,557.22,324.82,510.52Z"/><path class="cls-11" d="M157.72,590h-10.4l1,13.4a99.37,99.37,0,0,1,20.2,4.2c-1.6-3.8,2.6-7.9,1.8-12-.5-2.4-2.7-4.2-5.1-4.9S160.32,590.32,157.72,590Z"/><path class="cls-12" d="M204.42,597.22l-6.9,1.3-.3,12a97.91,97.91,0,0,0,24.1,2.7,51.64,51.64,0,0,1-.3-13.6C213.72,599.72,206.42,599,204.42,597.22Z"/><path class="cls-13" d="M148.92,489.82a60.65,60.65,0,0,0,5.8,16.6"/><path class="cls-13" d="M166.32,478.52a137.29,137.29,0,0,0,.7,17"/><path class="cls-13" d="M190.32,469.92a190.28,190.28,0,0,0-9.9,20.3"/><path class="cls-13" d="M205.82,470l-5.7,18.3"/><path class="cls-13" d="M217.42,495.42a101.57,101.57,0,0,1,18.5-14.9"/><path class="cls-13" d="M228.72,514a115.93,115.93,0,0,1,23-10.4"/><path class="cls-13" d="M233.62,534.82a58.72,58.72,0,0,0,19.1-3"/><path class="cls-13" d="M228.82,560.52l18.1-4"/><path class="cls-13" d="M230.52,580a49.17,49.17,0,0,0,13.2-3.3"/><path class="cls-13" d="M146.32,510.22c6.8-20.3,51-25.3,51-25.3a43.1,43.1,0,0,1,31.2,13.7c11,12.1,12.7,29.9,11.8,46.3a209.2,209.2,0,0,1-6.9,43.9"/><path class="cls-13" d="M176.42,467.52a333.08,333.08,0,0,1,48.9-2.4c13.8.3,29.3,2.4,37.4,13.5,6.5,8.9,6.1,21,4.9,32a316.53,316.53,0,0,1-11.3,55.4"/><path class="cls-13" d="M270.12,652.62q-1.35-30.3-5.1-60.5"/><path class="cls-8" d="M266,674.92a29,29,0,0,0,7.3-15.1"/><path class="cls-8" d="M273.72,679.72a21.18,21.18,0,0,0,5.2-11.1"/><path class="cls-14" d="M173.82,507.62c-2.6,3.3-6.9,4.5-10.8,5.9s-8.1,3.8-9.1,7.8a16.11,16.11,0,0,0-.1,4.9l2.3,24.3"/><path class="cls-15" d="M173.62,548.82a228.59,228.59,0,0,0,31.2-29.4"/><path class="cls-14" d="M216.42,515a168.4,168.4,0,0,0,5.2,31.5,288.78,288.78,0,0,1-37.2,15.5"/><path class="cls-13" d="M177.82,509.92c-2.6,3.3-6.9,4.5-10.8,5.9s-8.1,3.7-9.1,7.8a16.11,16.11,0,0,0-.1,4.9l2.3,24.3"/><path class="cls-8" d="M169,547.72a228.59,228.59,0,0,0,31.2-29.4"/><path class="cls-13" d="M220.52,517.22a168.4,168.4,0,0,0,5.2,31.5,294.81,294.81,0,0,1-37.2,15.5"/></g></g></g><g id="Layer_2-4" data-name="Layer 2"><g id="Layer_6" data-name="Layer 6"><path id="hair-back" class="cls-16" d="M515.28,209.74c-3,11.11-13.63,18.94-24.87,21.37s-23,.31-34-2.93c-8.27-2.43-16.43-5.5-25-6.45s-17.85.49-24.37,6.13-9.11,16.19-4.12,23.21c2.79,3.92,7.31,6.18,10.77,9.52s5.76,9,2.85,12.86l69.68,9.27c8.46,1.13,17.41,2.19,25.22-1.22,11.85-5.17,17.48-19.54,16.37-32.42S520.28,224.44,515.28,209.74Z"/><path id="face-color" class="cls-17" d="M517.86,194.44c-4.56,15-6,31.24-18.48,40.74-5.29,4-11.73,6.15-18,8.21-4.93,1.62-10,3.25-15.2,3-5.49-.3-10.61-2.72-15.55-5.13-10.47-5.12-21.05-10.51-29.38-18.66-9-8.8-14.9-20.39-18.65-32.41s-5.49-24.57-7.22-37.05c-.52-3.75-.75-8.26,2.24-10.58,2.21-1.72,5.29-1.48,8.06-1.84,7.11-.92,12.92-6.1,17.39-11.71,8.44-10.6,13.71-23.32,18.85-35.87s10.35-25.3,18.82-35.91,14.61-21,28.14-21.78c3.74,11.76,5.87,27.57-3.45,35.66,7.23-1.32,14.56,2.93,19,8.78S511,93,513.06,100l10.14,35c2.42,8.32,6.46,17,4.62,25.48C523.87,178.54,520.74,185.13,517.86,194.44Z"/><g id="pants-color"><path class="cls-18" d="M347.15,460.44A33.61,33.61,0,0,0,336.74,472c-2.32,4.2-3.7,8.85-5.15,13.42-16,50.73-41.57,98.23-54.93,149.71-2.06,8-3.83,16-5.6,24-.66,3-1.32,6.16-.45,9.12,1,3.46,3.95,6,7.88,8.7,7.28,8.84,18.47,13.42,29.47,16.63A189.84,189.84,0,0,0,366.53,701c6.17-.18,12.42-.67,18.25-2.69,10.75-3.7,19.12-12.22,26.08-21.21,1.39-1.79,2.81-3.81,2.74-6.08-.05-2-1.23-3.74-2.36-5.37-3-4.28-6-8.57-9.75-13.76-.31-4.3,4.18-7.25,8.18-8.89a87.49,87.49,0,0,1,33.89-6.49c-2.84-3.92-2.18-9.24-2.64-14.06-.61-6.49-3.46-12.51-5.77-18.61-12.35-32.7-9.56-69.66-21.13-101.29a10,10,0,0,1-4.91-9.76c.26-2.08,1.16-4.33.12-6.15a6.58,6.58,0,0,0-2.46-2.13C388.74,473.58,369.8,462.36,347.15,460.44Z"/><path class="cls-18" d="M454.51,577.44a95.12,95.12,0,0,0,13.23-6.35c.65,4.41,1.31,8.81,1.83,14.18l27.87-7.06q11.47-3.11,23.2-5.06c9.54-1.41,19.2-1.65,28.82-2.29,18.68-1.25,37.22-4,55.73-6.75,7.31-1.09,14.68-2.19,21.66-4.63,5.89-2,11.6-5.08,17.83-5.43,7.32-.42,14.28,2.91,20.86,6.15l19.2,9.46a7,7,0,0,1,2.65,1.87,5.82,5.82,0,0,1,.94,3.18c.43,7.32-3.86,15.11-.56,21.66.83,1.66,2.15,3.21,2.16,5.06,0,4.44-6.23,5.21-10,7.52-2.65,1.61-4.3,4.39-6.06,6.94-9.16,13.25-23.47,22.11-38.36,28.25-7.72,3.18-15.71,5.73-23.41,9-8.71,3.69-17,8.26-25.65,12.12-20.15,9-41.8,14.08-63.19,18.63-10.63,1.52-20.89,4.91-31.35,7.35s-21.42,3.93-32.62,1.4l-24.32-86c-1.93-6.86-3.68-14.89.63-20.56S448,580,454.51,577.44Z"/><path class="cls-19" d="M380.35,637.86c10.91-16.06,30.84-23.47,50-26.52,3.88-.62,8-1.09,11.65.27s6.79,5.1,6.11,9a134.58,134.58,0,0,0-53.6,21.55c-2.51,1.72-5.17,3.6-8.21,3.71S379.93,643.34,380.35,637.86Z"/><path class="cls-19" d="M486.5,626.28c12,21.09,18.5,41.06,25.41,64.32,1.42.17,3.73,1.57,5.65,1.35a5.62,5.62,0,0,0,4.08-3.45c1.08-2.69.12-8-.26-10.85-2.06-15.4-8-27.5-14.75-41.5-2-4.15-4.64-10.23-7.62-12C491.29,619.56,488.09,625.75,486.5,626.28Z"/><path class="cls-20" d="M485.47,630.05l-7.39,3.13a107.75,107.75,0,0,1,21.63,58,33.44,33.44,0,0,1,13.53-1.06,178.69,178.69,0,0,0-26.05-63.54C486.11,627.78,485,629,485.47,630.05Z"/><path class="cls-20" d="M448.29,622.79c3,1.34,3.8,5.56,2.25,8.43s-4.77,4.49-8,5.08-6.5.33-9.77.44a44.06,44.06,0,0,0-28.5,11.93c-1.36,1.29-2.72,2.73-4.52,3.26a7.12,7.12,0,0,1-6.39-1.7,21.37,21.37,0,0,1-4.19-5.44,143.86,143.86,0,0,1,57-24.26A4.26,4.26,0,0,0,448.29,622.79Z"/><path class="cls-21" d="M447,614.32c1,5.4,2,10.81,3.22,16.25a116.18,116.18,0,0,0-8.14,8.32c-1.92-1.64-4.79-1.29-7.25-.75A106.33,106.33,0,0,0,397,654.63a14.08,14.08,0,0,0-7.2-7.5c-2.17-1-4.56-1.4-6.7-2.44s-4.11-3-4.13-5.36c0-2,1.25-3.66,2.53-5.13A60.87,60.87,0,0,1,418.92,614c5-.68,10.11-.73,15-2.08,2.23-.62,4.44-1.52,6.75-1.56S446.38,611.08,447,614.32Z"/><path class="cls-21" d="M501.48,624.44c-3.32-.21-6.05-3.6-9.33-3.06-2.08.35-3.53,2.17-4.92,3.75a37,37,0,0,1-11.83,9c2.26.63,3.77,2.7,5,4.67a120.23,120.23,0,0,1,18.5,52.64c3.16.45,6.32-.64,9.5-1s6.93.4,8.42,3.24l7.09-5.37A196.85,196.85,0,0,0,501.48,624.44Z"/></g><g id="neck"><path class="cls-17" d="M430.66,231.54c-2,7.5-1.68,15.42-2.8,23.1s-4.12,15.74-10.75,19.8c-3.7,2.3-8.24,3.15-11.62,5.9-4.05,3.29-5.72,8.9-5.15,14.09s3.09,10,6.23,14.13c9.34,12.38,23.7,19.75,37.55,26.71,9.35-8.36,20.09-15.21,28.49-24.53s14.34-22.15,11.31-34.32c-4.49,1.86-10.47,3.4-13.56-.36-2-2.42-1.67-5.94-1.25-9L472,246C457.29,245.15,442.91,239.36,430.66,231.54Z"/><path class="cls-21" d="M462.65,309.34a54.4,54.4,0,0,0,12.8-7.93"/><path class="cls-21" d="M415,298.44c9.37,3.3,15.71,13.43,25.56,14.7"/></g><g id="shirt"><path id="shirt-bottom" class="cls-22" d="M464.74,556.78c0,4.81.32,9.62,2,13.56a68.4,68.4,0,0,1-16.08,9.19c.62-4.88,1.25-9.81.79-14.71-.49-5.24-2.21-10.41-1.8-15.65a2,2,0,0,1,.71-1.62,2.13,2.13,0,0,1,1.94.27l12.2,6.32C464.87,555,465.27,555.9,464.74,556.78Z"/><path class="cls-22" d="M400.74,286.78a5.19,5.19,0,1,0-10.21-1.87,5.3,5.3,0,0,0,.29,2.87c-11.74-1.76-20.49,14.54-32.22,12.71-2.56-.4-5.18-1.66-7.6-.76-1.66.62-2.8,2.13-3.83,3.57l-11,15.28A66.64,66.64,0,0,0,355.38,358c4.15,4.1,7.28,10.65,8.84,14.39,1,2.33-1.42,4.83-2.63,7l-13.3,24.24a230.32,230.32,0,0,1,38.4,33.64,147.59,147.59,0,0,0,11.58,12.14c12.18,10.67,23.75,23.79,40.21,22.26,1.74-.16,2.33,3.22,3.52,4.51,1.83,2,.45,6.14,0,8.79-2.41,14.21,3.21,25.84,6.21,38.29,2.79,11.53,6.13,20,14.44,25.31-9.51-28.87-3.81-64.05,13.34-89.14,4.09-6,8.88-11.61,11.85-18.24,4.5-10.09,4.36-21.53,5.21-32.55A171.41,171.41,0,0,1,501.58,367,59.16,59.16,0,0,0,547,346.2c1.5-1.78,2.94-3.77,3.19-6.08s-.76-4.6-1.75-6.73l-11.62-25.15c-3.48-7.51-7-15.17-12.74-21.18s-14-10.19-22.16-8.85c-1.87.31-4,.85-5.51-.24-1.35-1-1.7-2.81-2.62-4.19a5.76,5.76,0,0,0-7-1.94c-2.39,1.12-3.71,4.1-3.43,8.41,2.19,7.84-.31,16.4-4.8,23.19s-10.82,12.14-17,17.38l-10.15,8.62c-2.62,2.2-5.6,4.53-9,4.35-3.87-.21-6.71-3.51-9.7-6-4.88-4-11-6.22-16.25-9.81C407,311.44,398.37,299.82,400.74,286.78Z"/><path class="cls-23" d="M452.49,564l10.5-1.53"/><path class="cls-24" d="M452.66,526.57l2-.07"/><path class="cls-23" d="M444.69,508.76l12.21-.3"/><path class="cls-23" d="M444.29,485.64l16.73.58"/><path class="cls-24" d="M411.11,464.44c15.93-.22,42.13-1,58-2.56"/><path class="cls-23" d="M396.06,445.86c30.67-.15,60.8-1.38,91.37-3.74"/><path class="cls-23" d="M378.56,429.19q55.8.29,111.54-2.28"/><path class="cls-24" d="M359.18,414.54q64.89-.24,129.71-4.11"/><path class="cls-23" d="M352.31,396q69.66,1.47,139.33,1.17"/><path class="cls-23" d="M362.87,379.84,497.39,378"/><path class="cls-23" d="M545.51,328.15,507.45,350c.47,1.58-5,3.22-5,3.22-34.62-1.58-69.28-2.61-103-3.35-19.33-10.82-32.32-29.94-44.58-48.38"/><path class="cls-24" d="M345.92,312.39c9.32,20.52,20.4,37.49,36.66,52.3q57.75-2,115.52.28"/><path class="cls-23" d="M532.34,305l-12.91,13.34c-3.77,3.9-7.65,7.87-12.53,10.22-4,1.91-8.4,2.64-12.75,3.35-16.49,2.68-33,5.36-51,8.18L403,330.65c-2.69-.63-5.51-1.33-7.55-3.19a16.2,16.2,0,0,1-3-4.19c-6.23-11-10.69-16.58-16.92-27.63"/><path class="cls-24" d="M464.66,323.22c8.92-2.25,15.88-4.21,22.6-7.24,2.11-1,4.51-1.14,6.54-2.25a22.43,22.43,0,0,0,6.37-5.71c5.32-6.42,10.69-16.7,13.33-24.6"/><path class="cls-24" d="M418.21,321.36a33.13,33.13,0,0,0-9.88-.8,4.52,4.52,0,0,1-2-.12,4,4,0,0,1-1.35-.95c-8.21-7.82-10.44-20.48-18.82-28.1"/><path class="cls-21" d="M400.74,286.78a5.19,5.19,0,1,0-10.21-1.87,5.3,5.3,0,0,0,.29,2.87c-11.74-1.76-20.49,14.54-32.22,12.71-2.56-.4-5.18-1.66-7.6-.76-1.66.62-2.8,2.13-3.83,3.57l-11,15.28A66.64,66.64,0,0,0,355.38,358c4.15,4.1,7.28,10.65,8.84,14.39,1,2.33-1.42,4.83-2.63,7l-13.3,24.24a230.32,230.32,0,0,1,38.4,33.64,147.59,147.59,0,0,0,11.58,12.14c12.18,10.67,23.75,23.79,40.21,22.26,1.74-.16,2.33,3.22,3.52,4.51,1.83,2,.45,6.14,0,8.79-2.41,14.21,3.21,25.84,6.21,38.29,2.79,11.53,6.13,20,14.44,25.31-9.51-28.87-3.81-64.05,13.34-89.14,4.09-6,8.88-11.61,11.85-18.24,4.5-10.09,4.36-21.53,5.21-32.55A171.41,171.41,0,0,1,501.58,367,59.16,59.16,0,0,0,547,346.2c1.5-1.78,2.94-3.77,3.19-6.08s-.76-4.6-1.75-6.73l-11.62-25.15c-3.48-7.51-7-15.17-12.74-21.18s-14-10.19-22.16-8.85c-1.87.31-4,.85-5.51-.24-1.35-1-1.7-2.81-2.62-4.19a5.76,5.76,0,0,0-7-1.94c-2.39,1.12-3.71,4.1-3.43,8.41,2.19,7.84-.31,16.4-4.8,23.19s-10.82,12.14-17,17.38l-10.15,8.62c-2.62,2.2-5.6,4.53-9,4.35-3.87-.21-6.71-3.51-9.7-6-4.88-4-11-6.22-16.25-9.81C407,311.44,398.37,299.82,400.74,286.78Z"/><path id="shirt-bottom-2" class="cls-21" d="M464.74,556.78c0,4.81.32,9.62,2,13.56a68.4,68.4,0,0,1-16.08,9.19c.62-4.88,1.25-9.81.79-14.71-.49-5.24-2.21-10.41-1.8-15.65a2,2,0,0,1,.71-1.62,2.13,2.13,0,0,1,1.94.27l12.2,6.32C464.87,555,465.27,555.9,464.74,556.78Z"/><path class="cls-21" d="M363.87,370.44c2.66,2.4,4.85,7.22,7.29,10.56,4-3.27,8.27-8.3,12.28-11.57,3.37-2.75,6.84-5.62,8.81-9.5"/><path class="cls-21" d="M500.28,370.53l7.2-26.91"/></g><g id="hair"><path id="hair-2" class="cls-25" d="M360.79,86.26c-15-2.39-27.39,13.18-29.33,28.18s2.81,30.05,3.53,45.17c1.54,32.17-17,64.44-45.58,79.3a93.43,93.43,0,0,0,50.23.21c-7.31,15.45-26.22,24.13-30.2,40.75-3.87,16.22,11.16,37.75,27.65,35.33-5.22-5.27-6.52-20.23.55-22.47,6.3-2,12.87,13.68,16,19.47,6.46,11.74,15.21,12.47,23,23.35S396,360.81,388.57,372c17-20.77,5.45-45.22,6.46-74.94,14.62,15.9,10.58,38.57,8.5,64,10.33-20.86,16.62-44.27,23.93-65.9,1.8,11.5,2.27,23.5-2.35,34.18,17.68-15.1,17.33-45.36,1.4-62.3A37.51,37.51,0,0,0,454,274c-21.73-6.11-38-27.84-37.77-50.4-11.64-24.17-17.74-51-19.49-77.77,23.78-6.46,36.76-31.43,46.63-54s22-47.73,45.37-55.45c6.3,11,3.78,26.31-5.74,34.71,12.1-.74,22.69,8.92,27.9,19.87s5,26.77,8.27,38.46c2.18,7.93,6.76,12.23,7.21,20.44.66,12-1.92,28.6-5.64,37.35-9.06,21.36-3.57,33.93-1.74,53.53,1.72,18.47-4.63,38.68-19,50.38a50,50,0,0,0,26.86-25.79L512.77,299a54.73,54.73,0,0,0,25.84-33.77l1.74,19.18a150.66,150.66,0,0,0,19.74-62.11c10,14.11,13.89,37.78,6.07,53.17,17.12-6.11,24.84-26.27,26.47-46.05,1.49-18.11-12.45-33.38-28.73-39.28,13.24,5,27.81-4,32.82-17.22-5.55,2.32-11.3,4.68-17.32,4.64s-12.45-3.11-14.55-8.75c-5.28-14.19,18.95-28.16,11.88-41.54-15.23,2.83-29.44-7.68-35-22.17s-8.13-31.69-9-47.19c-1-16-4.14-33.14-22.1-38.79a52.75,52.75,0,0,0-33.4,1.11c-10.75,3.84-20.82,9.53-31.8,12.65-13,3.69-26.7,3.64-40.13,5.09S378,42.71,367.89,51.69,353,76.74,360.79,86.26Z"/><path class="cls-21" d="M349.33,139.5c21.77,11.94,50.84,8.82,69.59-7.46"/><path id="Hair-fill-top" class="cls-16" d="M482.49,71.57c5.64-3.63,9.12-10.14,9.78-16.81a31.45,31.45,0,0,0-4.79-19.19c-12.4,5.29-21.28,16.27-29.63,26.87l-7.77,9.83c6-2,12.1-4,18.41-4.76S481.45,67.44,482.49,71.57Z"/></g><path class="cls-17" d="M499,382.09c7,9.93,7.64,19.31,9.87,31.27,1.63,8.71,1.43,19.88,1.84,28.73,1.3,28.32,1.08,57.45,9.39,84.55,2.27,7.39,5.49,14.46,7.74,21.85a167.27,167.27,0,0,1,4.45,20.39l1.22,2.39a290.6,290.6,0,0,1,33.64-1c-6-11.7-7.84-25-9.64-38l-3.46-25c-1.29-9.36-2.59-18.72-3.33-28.13-1.14-14.47-1-29-2.14-43.49-2-25.19-8.07-50.72-2.67-75.4.75-3.44,5.43-13.5,3.73-16.58-10.89,12.9-30,22.28-44.57,23a5.34,5.34,0,0,0-3.08,1.05,3.88,3.88,0,0,0-1.48,2.25C499.83,374.44,497.51,380,499,382.09Z"/><path class="cls-21" d="M543,384.5c-2.89,4.43-3.44,8.84-5,13.92l-3.3,11"/><path class="cls-21" d="M535.26,480.54l6.09,14"/><path class="cls-17" d="M335.19,320c-3.76,4.1-5.55,9.57-7.82,14.64-6.41,14.31-17.19,26.21-24.64,40-8.33,15.44-12.27,32.8-16.13,49.92a7,7,0,0,0-.08,4.08,7.76,7.76,0,0,0,1.91,2.42,30.79,30.79,0,0,1,6.9,10.6c8.23,0,15.69,4.44,23.21,7.77,14.36,6.36,30,9,45.08,13.55,13.15,4,31,12.42,42,20.47,2.77,2,2.51,4.34,2.51,5.73,0,3.58-1,4.2.87,7.42l4.77,8.39c2.45,4.32,4.88,9.86,2.43,13.94a40.55,40.55,0,0,0-3,21.53c.81,6,3,11.77,3.38,17.8.38,5.51-.69,11-1.76,16.42q-2,10.29-4.06,20.56c3.14,2.73,10.11,1.17,10.84-2.92-.25,3.81,1.42,5.33,4.29,6.36s5.79-.93,7-3.73c.74,3.08,2.07,5.46,4.36,5.6s4.41-.67,4.17-3a19.75,19.75,0,0,1,.61-8.44c1.24,3.16,1.71,5.3,3.63,6.58s4.75,1.54,6.43,0a114.38,114.38,0,0,1-1.2-17.35,113.36,113.36,0,0,0-.22-28.57A61.86,61.86,0,0,1,464,555.92c1.89-3.09-.69-6.89-2.94-9.72a62.1,62.1,0,0,1-12.35-24.47,101.69,101.69,0,0,1-1.95-17.49L445.07,472a75,75,0,0,1-34.6-12c-20-13.14-32.94-35.31-53.27-48-3.52-2.19-7.66-4.7-8.09-8.83-.28-2.69,1.18-5.22,2.58-7.54l7-11.52c2.55-4.2,6.7-6.5,5.46-11.25-.75-2.9-4.35-7.72-6.28-10C347.74,350.78,340.43,336.19,335.19,320Z"/><path class="cls-21" d="M442.65,553.2a103.13,103.13,0,0,1-1,27.63c-.58,3.34-1.31,6.81-.41,10.08"/><path class="cls-21" d="M450.35,527.51c-.21,6.17-1.19,17.07,1,23.66"/><path class="cls-21" d="M403.49,481.77c2.13,1,6.75,1.49,8.84,2.55"/><path class="cls-21" d="M420.52,480.09,418,478.81a.78.78,0,0,0-1.09.13l-.08.11c-.75.92-1.47,1.88-2.13,2.86l-3.16,4.53a11.41,11.41,0,0,0-1.7,3.12,10.6,10.6,0,0,0-.27,2.86V497"/><path class="cls-21" d="M351.47,407.36a48.84,48.84,0,0,0-27.15-4.73,18.73,18.73,0,0,0-8.08,2.44"/><path class="cls-21" d="M428.27,553.13c-.64,13.65-3.69,27.06-6.73,40.39"/><path class="cls-21" d="M436.74,555.86c1.79,8.69-2,17.44-3.33,26.22a48.87,48.87,0,0,0,.09,15.55"/><g id="Pants-lines"><path class="cls-21" d="M341.2,502.27c.21,11.72,3.37,23.16,6.51,34.45l6.69,24a218.71,218.71,0,0,0,6.74,21.51c6.23,16.15,16,30.67,25.61,45"/><path class="cls-21" d="M394.37,501.72c8.72,20.81,7.84,44.49,15.15,65.84"/><path class="cls-21" d="M402.74,656.44a54.17,54.17,0,0,0-2,16.16"/><path class="cls-21" d="M407.44,663.49l-.43,6.17"/><path class="cls-21" d="M436.4,623.38l8.24-2.19"/><path class="cls-21" d="M411.11,631.56a83.75,83.75,0,0,1,19-5.51"/><path class="cls-21" d="M397.67,639l7.69-4.12Z"/><path class="cls-21" d="M392.74,642.58l-4.68,3.86"/><path class="cls-21" d="M490.86,631.32a8.65,8.65,0,0,0,3.08,6.46"/><path class="cls-21" d="M496.22,644l4,9.92"/><path class="cls-21" d="M504.8,661.52l3,9.33"/><path class="cls-21" d="M511.36,678.28l1.1,5.49"/><path class="cls-21" d="M338.07,497.57a109.58,109.58,0,0,1,8.16-9.72c1.24,2.61,2.4,5.26,3.46,7.95"/><path class="cls-21" d="M352.57,508.44l4.32,11.21"/><path class="cls-21" d="M360.33,536.88,363.42,550a1.8,1.8,0,0,0,.5,1"/><path class="cls-21" d="M366.32,570.44a46.16,46.16,0,0,1,6,10"/><path class="cls-21" d="M379.66,599.76a123.31,123.31,0,0,1,5.75,11.14c.07.16.2.34.37.31s0-.38-.09-.22"/><path class="cls-21" d="M333.85,505.5a172,172,0,0,0-9.44,26.2"/><path class="cls-21" d="M319.9,547.34l-10.85,23.1a.61.61,0,0,0,.65.27"/><path class="cls-21" d="M306.45,588.69l-8.52,17.6"/><path class="cls-21" d="M293.45,627.74a126.8,126.8,0,0,0-8.65,14.87"/><path class="cls-21" d="M280.16,666a49.6,49.6,0,0,1,3.49-10.32"/><path class="cls-21" d="M454.38,618.81l6.34-5.16"/><path class="cls-21" d="M466.15,610.19a43.66,43.66,0,0,1,14.37-6.42"/><path class="cls-21" d="M485.9,600.6A55.42,55.42,0,0,1,499,595.25"/><path class="cls-21" d="M507.36,594a76.65,76.65,0,0,1,15.09-5.11"/><path class="cls-21" d="M532.23,585.05l14-4.89"/><path class="cls-21" d="M563.74,577.44a80.65,80.65,0,0,1,13.76-2.77C579,574.5,579.41,574.05,563.74,577.44Z"/><path class="cls-21" d="M588.15,574.44q8.31-2.25,16.78-3.9"/><path class="cls-21" d="M617.05,567.79l21.89-2.17"/><path class="cls-21" d="M634.74,572.33a66.73,66.73,0,0,0-9.69,6.64"/><path class="cls-21" d="M600.26,590.38a25.5,25.5,0,0,0-6.81,2.52"/><path class="cls-21" d="M578.8,595.1A41,41,0,0,0,565.12,600"/><path class="cls-21" d="M547.13,611.22a97.92,97.92,0,0,0-9,7.11"/><path class="cls-21" d="M517.56,629.91,511,634.8"/><path class="cls-21" d="M611.53,581.85c-16.62,2-33.66,4.17-48.46,12-6.38,3.36-12.29,7.76-19.16,9.93-2.3.72-4.74,1.22-6.65,2.69s-3.13,4-4.52,6.07c-6,9.11-17.07,13.15-27.4,16.62"/><path class="cls-21" d="M472.74,678.59,496.09,675"/><path class="cls-21" d="M521.81,666.44l7.22-1.93"/><path class="cls-21" d="M637.25,624.15q-34.44,17.72-68.37,36.38"/><path class="cls-21" d="M678.07,609.86q-8.7.76-17.42,1.82c-2,.25-4.1.54-5.71,1.76a10.81,10.81,0,0,0-2.15,2.38,67,67,0,0,0-6.86,11.93"/><path class="cls-21" d="M470.51,586.19c-3.49,2-7.12,4-9.3,7.38a24.64,24.64,0,0,0-2.58,6.1l-2.55,7.91"/></g><g id="Leg-skin"><path class="cls-17" d="M412.74,670.44,397,677.5a12.08,12.08,0,0,1-7.84,1.34l-26-2.19c-4-.34-8.06-.66-11.93.35s-7.55,3.66-8.7,7.49c1.53-2.88,6.09-2.7,8.42-.42s3,5.74,3.37,9c.41,3.44.67,6.88.78,10.34s-.34,7.63-3.41,9.25a13.66,13.66,0,0,1,10.24,1.82c1.38.89,5.85,2.73,7.49,2.76s6.48-3.66,8.05-3.82c4.39-.43,5.24,1.11,9.39,1.33,5.23-4.06,7.55-3.54,10.11-4.18A210.22,210.22,0,0,1,418.71,706a20.23,20.23,0,0,0,5.93-18.23C423.3,681,418.74,675.49,412.74,670.44Z"/><path class="cls-17" d="M405.43,655.33C409.7,664,411,669.66,416.12,678a42.75,42.75,0,0,0,1.42,4.59,27.7,27.7,0,0,1,1.58,5.41c.45,3.42.65,5.62.83,9.07.21,4.06,1.76,6.92-1.14,8.8a24.86,24.86,0,0,0,15.62,4.75c2-4.33,6.8-6.59,11.4-7.83s9.5-1.85,13.53-4.39a3.17,3.17,0,0,0,1.38-1.4,3.51,3.51,0,0,0-.15-2.28q-7.32-25.11-14.68-50.23c-.8-2.76-1.84-5.81-4.4-7.11-1.78-.91-3.9-.74-5.88-.46a72.54,72.54,0,0,0-31.71,12.57C402.74,650.27,403.43,651.24,405.43,655.33Z"/><path class="cls-17" d="M480,641.91c-7.26,2.06-14.85,4.32-20.19,9.65-2.33,2.34-4.61,5.42-8,6.9,3.09,5.25,3.59,11.56,4.7,17.55s2,13.09,7.1,16.45c4.6,3,11.77,2.18,17.28,2a68.89,68.89,0,0,0,9.5-1.3c11.25-2,8.08-3.06,7.86-6.1-.19-2.64-.11-5.23-.5-7.86C495.63,665.16,490.1,651.68,480,641.91Z"/></g><g id="Shoes"><path class="cls-26" d="M377.36,676.44c4.3-3.19-9.06-17.91-11.31-19.54a4,4,0,0,1-1.7-2c-.21-.67-.09-1.42-.33-2.07a3.81,3.81,0,0,0-1.28-1.59,23.44,23.44,0,0,0-10-4.74c-9.83-1.83-19.2,4.16-27.82,9.24a195.92,195.92,0,0,1-35.21,16.31c-4,1.39-8.11,2.68-11.72,4.9-6.51,4-10.87,10.71-14.3,17.54a110.36,110.36,0,0,0-11.37,40.72,9.38,9.38,0,0,0,.57,5c1.19,2.35,4.15,3.35,6.76,3s5-1.65,7.25-3c5.43-3.16,10.87-6.39,15.49-10.65s8.39-9.67,9.65-15.82l61.08-1.93C343.53,658,369.08,682.54,377.36,676.44Z"/><path class="cls-27" d="M341.8,685.76c2.75-1.28,5-4.92,7.59-3.43a5.88,5.88,0,0,1,1.93,2.07,31.68,31.68,0,0,1,3.86,25.13c-.47,1.75-1.46,3.75-3.27,3.9-.71-3.78-4.33-6.45-8.09-7.29s-7.65-.25-11.47.25a207,207,0,0,1-44.58,1A113.94,113.94,0,0,0,286,694.53C305.06,697.44,323.92,694.12,341.8,685.76Z"/><path class="cls-21" d="M378.57,680a38.1,38.1,0,0,1-6.7,9.78"/><path class="cls-21" d="M393.53,682.54l.88,3a14.06,14.06,0,0,0-4.85,4.38"/><path class="cls-21" d="M431.32,687.17a20,20,0,0,0-3.21,9.92.81.81,0,0,0,0,.31.83.83,0,0,0,.31.28,9.51,9.51,0,0,1,2.51,2.26"/><path class="cls-28" d="M363.44,656.64c-5.58,4.6-14,2.33-20.93,4.31-6.32,1.8-11,7-16.06,11.17a61.81,61.81,0,0,1-41.73,14c3.29,10,2.93,20.75,1.71,31.17-.53,4.51-1.28,9.21-4,12.87-2.29,3.12-5.73,5.16-9.17,6.91a104.6,104.6,0,0,1-12,5.22c-1.85.67-3.93,1.28-5.74.51a5.8,5.8,0,0,1-3.08-4.58,24.35,24.35,0,0,1,.23-5.78c.36-3.69.22-7.42.66-11.1.89-7.3,4.06-14.1,7.19-20.75,3.73-7.89,7.7-16.06,14.59-21.41a56.64,56.64,0,0,1,11.43-6.32l30.09-13.71c4-1.81,8-3.62,11.75-5.76s7.67-4.81,11.91-6.34a26.57,26.57,0,0,1,18.25.16,10.47,10.47,0,0,1,4.47,2.88C364.14,651.49,364.62,653.53,363.44,656.64Z"/><path class="cls-21" d="M341.13,685.13a104.59,104.59,0,0,1-53.55,10.31"/><path class="cls-21" d="M349.74,712.34c-.17-3-2.71-5.34-5.51-6.28s-5.85-.74-8.8-.55q-24.82,1.56-49.69,1.22"/><path class="cls-21" d="M461.74,699.3a4.89,4.89,0,0,1,7.24,6.09c3.78.88,6.91,3.45,9.76,6.08,13.13,12.11,23.5,27.17,37.81,37.86,3.3,2.46,7,5,8.1,9L510.42,765a2.38,2.38,0,0,1-2.12.27,3,3,0,0,1-1-1.32c-1.27-2.39-3.88-3.66-6-5.31a42.64,42.64,0,0,1-6.42-6.8,113,113,0,0,0-37.05-28.93c-7.93-3.86-16.69-7.07-22.17-14"/><path class="cls-26" d="M417.74,707.93a22.84,22.84,0,0,0-6.23,8.15,92.89,92.89,0,0,1,14.54,9,16.65,16.65,0,0,0,3.69,2.36,18.17,18.17,0,0,0,4.42.95,50.54,50.54,0,0,1,13.58,4,24.31,24.31,0,0,1,6.57,4.14c2.8,2.63,4.52,6.2,6,9.72,3,6.92,5.52,14.12,9.63,20.44s10.17,11.75,17.57,13.25a9.86,9.86,0,0,0,5.54-.22,13,13,0,0,0,3.18-2l9.32-7.32a6.83,6.83,0,0,0,2.49-2.86c.61-1.72-.27-3.65-1.55-4.95a41,41,0,0,0-4.37-3.26c-2.91-2.23-4.93-5.38-7.18-8.27a83,83,0,0,0-16.79-15.62c-10.5-7.67-21.89-14-33.24-20.37l-6.56-3.63c-1.34-.75-2.82-1.53-4.33-1.28-.63.11-1.22.38-1.83.54C427.35,712,421.82,704.59,417.74,707.93Z"/><path class="cls-28" d="M409.52,718.44c-7,8.46,1.13,10.67,4.18,14.58s7.31,6.63,11,9.87a49.87,49.87,0,0,1,14.24,20.94c1.39,4,4.2,11.45,6.81,14.75,11.41,14.37,14.37,17.17,29.71,20.69a161.23,161.23,0,0,0,25.48,3.82c4.56.31,9.08,1.07,13.63,1.51a123.45,123.45,0,0,0,18.84.24,84.51,84.51,0,0,0,14-1.74,56.53,56.53,0,0,0,21.58-10c1.42-1.07,2.87-2.33,3.32-4.05A8.6,8.6,0,0,0,572,785L570.46,778a21.05,21.05,0,0,0-2-5.91,18.76,18.76,0,0,0-4.9-5.07c-9.82-7.62-22.32-13.42-34.67-11.24a9.31,9.31,0,0,0-4,1.49,35.08,35.08,0,0,0-2.47,2.56c-3.13,3-8.08,3-11.9,5.14-2.86,1.57-4.93,4.22-7.07,6.68-3.32,3.81-7.33,7.48-12.31,8.26-4.53.71-9.16-1.14-12.71-4s-6.17-6.73-8.62-10.6a55.08,55.08,0,0,1-5.31-10.08c-1.55-4.15-3.37-10.16-5.69-13.93-4-6.42-11.66-9.32-18.91-11.41s-13.9-2.55-19.08-8c-1.26-1.33-2.36-2.87-4-3.75S411.06,716.61,409.52,718.44Z"/><path class="cls-29" d="M565.2,772.86c-6.66,2.41-9.92,10.09-16,13.66-4.77,2.79-10.63,2.72-16.15,2.57l-27.42-.75c-13.1-.36-27.27-1.09-37.42-9.39-8.63-7.06-12.6-18.2-19.07-27.28-9.7-13.58-24.76-22.19-39.62-29.78,4.15,5,10.5,7.37,15.93,10.88,20.2,13,27.2,40.78,47.65,53.43,11.88,7.35,26.45,8.43,40.39,9.31,9.43.6,18.91,1.19,28.32.34,7.54-.69,15.37-2.5,21-7.57C567.19,784.31,569.6,776.75,565.2,772.86Z"/><path class="cls-29" d="M358.33,649.92a75.83,75.83,0,0,0-31.73,10.23c-4.81,2.86-9.31,6.26-14.3,8.8-10.18,5.19-22.16,6.71-31.49,13.32-8.18,5.79-13.45,15-16.34,24.59s-3.63,19.69-4.36,29.69a4,4,0,0,0,.29,2.29c1,1.71,3.9.88,4.69-.93s-.25-3.83-.25-5.8c0-21.67,10.42-49.67,26.07-51.74,10.3-1.34,20.59-4.84,29.07-10.84,2.56-1.81,4.8-4,7.38-5.82,8.86-6.09,20.53-6.1,30.36-10.46C359.34,652.53,361.18,650.82,358.33,649.92Z"/><path class="cls-21" d="M494.74,780.55a18.83,18.83,0,0,0-6.22,10.13,15.89,15.89,0,0,0,1.13,10.83"/><path class="cls-27" d="M468.47,705.9l.74-4.44a5.93,5.93,0,0,0-8.14-2,7.17,7.17,0,0,0-.94.7c-1.27-1.29-3.41-.83-5.13-.28l-17.63,5.64c-1,.34-2.33,1-2.13,2.12a2.29,2.29,0,0,0,1.06,1.3c9.9,7.21,20.8,12.92,31.28,19.26,13.95,8.44,27.69,18.52,35.4,32.89a5.9,5.9,0,0,0,1.89,2.44,5.46,5.46,0,0,0,2.4.6c4.71.44,10.09.6,13.43-2.75a8.31,8.31,0,0,0,2.11-7.93l-10.55-7.6c-3.48-2.51-7.06-5.13-9.24-8.82-.79-1.6-1.67-3.17-2.62-4.7-1.46-2-3.61-3.4-5.54-5-4.48-3.72-7.79-8.65-11.83-12.85S473.74,706.63,468.47,705.9Z"/><path class="cls-26" d="M475.27,707.32c5.16,2.89,9.15,7.44,13.33,11.62a129.52,129.52,0,0,0,24.92,19.5c2.29,1.38,4.63,2.69,6.78,4.29,5.61,4.16,10.16,10.36,16.73,12.38a39.44,39.44,0,0,0-13,.64c-1.93-5.34-8-7.7-12.63-11-4.25-3-7.6-7-11-10.94C492.3,724.44,483.68,715.44,475.27,707.32Z"/><path class="cls-21" d="M475.51,720.21a16.65,16.65,0,0,0,11.76,6.44c1.37.11,2.84.08,4,.85"/><g id="Shoes-outline"><path class="cls-21" d="M357.92,651.84a58.84,58.84,0,0,0-8.31,1.69"/><path class="cls-21" d="M342.2,655.55a17.46,17.46,0,0,0-8.53,2.89"/><path class="cls-21" d="M326.74,663.7a84.15,84.15,0,0,0-9.67,4.64"/><path class="cls-21" d="M310.63,673.27q-5.13,1-10.14,2.5"/><path class="cls-21" d="M293.84,678.44,289,680"/><path class="cls-21" d="M279.87,688.2l-9.33,8.24"/><path class="cls-21" d="M269.74,704.56l-3.2,7.6"/><path class="cls-21" d="M262.67,723.08l-1.2,5.73"/><path class="cls-21" d="M262.27,734.67l-.27,5.19"/><path class="cls-21" d="M297.85,698.44l.83,7.19"/><path class="cls-21" d="M307.4,697a28.56,28.56,0,0,1,1.34,8.65"/><path class="cls-21" d="M317.29,695.11l1.24,10"/><path class="cls-21" d="M326.82,691.26A38.57,38.57,0,0,1,328.09,703"/><path class="cls-21" d="M341.21,695.88c1.77-3.39,2.09-7.32,2.28-11.14a9.38,9.38,0,0,0-.66-4.88,8.25,8.25,0,0,0-2.53-2.63,10.36,10.36,0,0,0-5.56-2.36,2.5,2.5,0,0,0-1.77.51,2.75,2.75,0,0,0-.54,2.31c.51,4.65,3.33,8.66,5.14,13C338.46,692.83,339.43,695.44,341.21,695.88Z"/><path class="cls-21" d="M340.45,695.85l-5.61,14.82a22.58,22.58,0,0,0-1.88,7.44,1.37,1.37,0,0,0,.31,1,1.2,1.2,0,0,0,.81.25c2.93.17,5.67-1.77,7.23-4.25a20.34,20.34,0,0,0,2.5-8.37,11.08,11.08,0,0,0,0-4.06,12.3,12.3,0,0,0-1.52-3.19A22.68,22.68,0,0,1,340.45,695.85Z"/><path class="cls-21" d="M322.52,722.26c1.92-7.16,6.47-13.28,10.92-19.2a76.49,76.49,0,0,0,5-7.12,74.59,74.59,0,0,0-18.17-9.5"/><path class="cls-21" d="M565.46,777.57a59.63,59.63,0,0,1-6.44,7.3"/><path class="cls-21" d="M552.13,790.25l-9.2,3"/><path class="cls-21" d="M534.15,792.44a35.1,35.1,0,0,1-11.71,1.42"/><path class="cls-21" d="M502.19,791.18a34,34,0,0,0,10.18,1.26"/><path class="cls-21" d="M413.14,724.86A95.71,95.71,0,0,0,423.51,732"/><path class="cls-21" d="M430.55,735.64a8.44,8.44,0,0,0,5.54,4.85"/><path class="cls-21" d="M441.16,745.88a63.92,63.92,0,0,1,6.67,6.7"/><path class="cls-21" d="M452.58,762.38l5,8.52c.6,1,1.31,2.12,2.46,2.39"/><path class="cls-21" d="M466.26,778.6a71.89,71.89,0,0,0,8,5.78"/><path class="cls-21" d="M481.29,788.66l5.61.76"/><path class="cls-21" d="M475.28,718.59A13.94,13.94,0,0,1,485.74,703a7.07,7.07,0,0,1,3.17,0c2.46.69,3.9,3.49,3.68,6a11,11,0,0,1-3.54,6.61,14.21,14.21,0,0,1-7.4,4.2c-3.31.6-6.67-.38-10-1s-7-.71-9.72,1.31-3.62,5.54-4.22,8.83a3.82,3.82,0,0,0,0,2.17c.5,1.17,2,1.54,3.27,1.56a14,14,0,0,0,13.76-12.31,76.26,76.26,0,0,0-1.09,21"/><path class="cls-21" d="M480.54,736.58a46,46,0,0,1,11.09-7"/><path class="cls-21" d="M490.74,743.23a29.84,29.84,0,0,1,4.44-4.55,10,10,0,0,1,5.86-2.24"/><path class="cls-21" d="M497.21,752.8A14.4,14.4,0,0,1,508.3,745"/><path class="cls-21" d="M503.63,758.24A12,12,0,0,1,514.28,751"/><path class="cls-21" d="M507.27,761.44a55.2,55.2,0,0,1,12.11-6.73"/><path class="cls-30" d="M457.46,708.68l-.74-3.49a9.58,9.58,0,0,1,5.64,2.36,3,3,0,0,0,1,.66,2.53,2.53,0,0,0,1.16,0,16.34,16.34,0,0,1,5.58.11,17.54,17.54,0,0,1-6.16,4.23l2.68,4.68a13.13,13.13,0,0,1-6.51-1.39l-2.71,4a11.89,11.89,0,0,1-1.3-5.83,7.69,7.69,0,0,1-6.46-3C451.38,711.09,453.18,711,457.46,708.68Z"/><path class="cls-30" d="M340.06,693.89l-.74-3.45A9.58,9.58,0,0,1,345,692.8a2.47,2.47,0,0,0,1,.66,2.53,2.53,0,0,0,1.16,0,16,16,0,0,1,5.57.12,17.77,17.77,0,0,1-6.15,4.23l2.64,4.63a13.06,13.06,0,0,1-6.52-1.38l-2.7,4a11.85,11.85,0,0,1-1.3-5.82,7.78,7.78,0,0,1-6.47-3C334,696.3,335.74,696.16,340.06,693.89Z"/></g></g><g id="face-expressions"><path class="cls-31" d="M419.94,145.13a24,24,0,0,1,29.8-22.23c1.72.44,3.86,1,5-.39,1.36-1.54,0-4-1.53-5.3-4.74-4-11.7-4.94-17.6-3s-10.73,6.52-13.78,11.93A42,42,0,0,0,417,144a4.85,4.85,0,0,0,.3,2.53C417.74,147.32,419.81,148.17,419.94,145.13Z"/><path class="cls-31" d="M478.32,105.71c-3.26,1.11-6.07,4.33-5.48,7.72a7,7,0,0,0,3.27,4.55,9.6,9.6,0,0,0,8.23.94c3.53-1.25,6-4.47,9.44-6,5.75-2.67,12.45-.1,18.26,2.45,0-3.75-3.42-6.6-6.88-8C497.67,104.13,481.57,104.6,478.32,105.71Z"/><path class="cls-32" d="M442.34,187.8a19,19,0,0,0-5.75-2.46,6.43,6.43,0,0,0-5.82,1.55c-1.77,1.87-1.72,4.84-.88,7.27a9.58,9.58,0,0,0,3.56,5,11.27,11.27,0,0,0,7.51,1.38c2.58-.28,5.1-1,7.69-1.18,2.16-.16,4.34,0,6.49-.18a17.18,17.18,0,0,0,6.18-1.83c2.21-1.13,4.35-3.15,4.2-5.63-.13-2.14-2-3.85-4.08-4.46a16.17,16.17,0,0,0-6.39-.11C450.64,187.63,445.74,189.72,442.34,187.8Z"/><path class="cls-32" d="M517.59,152.08a3.22,3.22,0,0,0-2.32-.9,3.27,3.27,0,0,0-2.15.95c-2.05,3.15-2.57,5.71-2.42,7.53.19,2.2,1,4.69-.34,6.44a7.33,7.33,0,0,1-1.94,1.52,18.26,18.26,0,0,0-5.9,6.24,6,6,0,0,0-1,3.5c.25,2.14,2.55,3.61,4.71,3.53a8.72,8.72,0,0,0,5.63-2.88c1.53-1.51,2.78-3.3,4.32-4.81a45.92,45.92,0,0,0,3.71-3.54,11.17,11.17,0,0,0,2.43-6.51A14.68,14.68,0,0,0,517.59,152.08Z"/><path class="cls-32" d="M484.39,174.57c-2.74,4.43-3.68,9.73-4.26,14.92a6.88,6.88,0,0,0,.07,2.75,2.43,2.43,0,0,0,1.9,1.81,3.35,3.35,0,0,0,2.67-1.49,16.26,16.26,0,0,0,4.08-8.57,11.17,11.17,0,0,0-2.69-8.93,1.69,1.69,0,0,0-1.12-.64C484.59,174.44,484.17,175,484.39,174.57Z"/><path class="cls-33" d="M435.43,187a3.66,3.66,0,0,0-.18,2.44,3,3,0,0,0,1.85-1.24C437.44,187.49,436.85,186.44,435.43,187Z"/><path class="cls-33" d="M443.27,191.89a3.08,3.08,0,0,0,.62,1.58,1.08,1.08,0,0,0,1.51.15v0a1.46,1.46,0,0,0,.25-1,1.75,1.75,0,0,0-.37-1.16C445,191.1,444.42,191.06,443.27,191.89Z"/><path class="cls-33" d="M452.55,190.11l1.19,1.93a1.27,1.27,0,0,0,.51-1.66,1.06,1.06,0,0,0-1.42-.47A1.42,1.42,0,0,0,452.55,190.11Z"/><path class="cls-33" d="M458.74,191.17a3.09,3.09,0,0,0,1.82,1.9,1.17,1.17,0,0,0,.39-1.52C460.66,191.05,460,190.82,458.74,191.17Z"/><path class="cls-33" d="M505.92,175.33a7.42,7.42,0,0,0,.26,2.25C506.79,177.27,507,176.44,505.92,175.33Z"/><path class="cls-33" d="M512.59,156.27a3.5,3.5,0,0,0,1.85,2.1C515,157.58,514.2,156.33,512.59,156.27Z"/><path class="cls-33" d="M518.74,161.86l-.57,1.22.39.54a1.07,1.07,0,0,0,1.12-1v-.09C519.6,161.9,518.91,161.44,518.74,161.86Z"/><path class="cls-33" d="M511.86,170.76a3.75,3.75,0,0,0,.5,2.45,1.15,1.15,0,0,0,.24-1.47C512.3,171.28,511.64,171.1,511.86,170.76Z"/><path class="cls-21" d="M474.74,158.55a39.42,39.42,0,0,0,8.78,12.4,25.54,25.54,0,0,1,3.65,3.85c1.89,2.8,2.12,6.46,1.39,9.76a37.32,37.32,0,0,1-3.92,9.3"/><path class="cls-34" d="M441.55,207c2.92,16,32.44,14.32,41.3,10.7,4-1.64,7.93-3.93,10.24-7.58"/><path class="cls-35" d="M506.44,143.44c-.83-3.86-1.74-7.86-4.2-10.94s-7-4.89-10.47-3c-3,1.62-4.24,5.31-4.81,8.71a47.59,47.59,0,0,0,1.78,22.63,12.86,12.86,0,0,0,3.28,5.78c3.07,2.71,8.09,2.34,11.32-.18s4.84-6.68,5.15-10.76S507.36,147.69,506.44,143.44Z"/><path class="cls-35" d="M445.49,140.9c-5,2.07-8.42,7-9.69,12.27s-.62,10.81.72,16.06,4,10.76,9.14,12.07c4.89,1.25,10-2.25,12.16-6.81s1.91-9.86,1.22-14.85a33.84,33.84,0,0,0-3.47-11.83C453.57,144.19,450.32,141.11,445.49,140.9Z"/><path class="cls-36" d="M455.17,146.46l1.31-6.72"/><path class="cls-36" d="M451.08,141.91l.92-5.66"/><path class="cls-36" d="M444.63,141.19l-1.31-5.79"/><path class="cls-36" d="M439.5,144.61l-4.61-5.4"/><path class="cls-36" d="M436.13,150.49l-5.27-3.16"/><path class="cls-36" d="M435.12,157.84l-7.63-2.64"/><path class="cls-36" d="M448.16,182.17l.53,5.13"/><path class="cls-36" d="M453.47,179.93l2.36,4.48"/><path class="cls-36" d="M457.27,178.24l2.63,2.63"/><path class="cls-36" d="M442,180.74l-.92,4.74"/><path class="cls-36" d="M485.77,145.07l-4.61-3.95"/><path class="cls-36" d="M486,137.61l-4.6-5.92"/><path class="cls-36" d="M488.85,130.4l-2.1-6.45"/><path class="cls-36" d="M494.39,127.44v-6.32"/><path class="cls-36" d="M501.12,130.26l.79-7.37"/><path class="cls-36" d="M504.54,134.78l2.76-6.18"/><path class="cls-36" d="M494.22,168.43l.35,4.89"/><path class="cls-36" d="M498.47,168.33l2.11,4.87"/><path class="cls-36" d="M503.81,166.88l2.23,2.9"/><path class="cls-36" d="M507.42,162.71l3.45,2.43"/><path class="cls-31" d="M456.44,153.77c-1.65-2.41-5.3-2.86-7.81-1.39a9,9,0,0,0-4,7.35,18.18,18.18,0,0,0,2,8.41,11.56,11.56,0,0,0,3.45,4.77,5,5,0,0,0,5.56.41c1.71-1.18,2.13-3.51,2.22-5.58C458.05,163.11,459.12,157.72,456.44,153.77Z"/><path class="cls-31" d="M505.73,141.36a5.24,5.24,0,0,0-5.76-2.67,7,7,0,0,0-4.86,4.43,10.93,10.93,0,0,0-.13,6.74,25.12,25.12,0,0,0,2.86,6.2,9.8,9.8,0,0,0,2.08,2.7,3.79,3.79,0,0,0,3.16,1c2-.43,2.9-2.74,3.23-4.76C507,150.55,507.67,145.61,505.73,141.36Z"/><path class="cls-34" d="M478.24,179.49l-1.5,5.24"/></g><path class="cls-21" d="M283.65,685.37a7.89,7.89,0,0,0-2.86-4.17,8.23,8.23,0,0,0-6.66-1.22"/><g id="headphones"><ellipse class="cls-37" cx="381.06" cy="181.07" rx="31.78" ry="35.57" transform="translate(-13.11 30.66) rotate(-4.53)"/><ellipse class="cls-38" cx="380.96" cy="179.84" rx="26.69" ry="29.87" transform="translate(-13.01 30.65) rotate(-4.53)"/><path class="cls-39" d="M375,194.26l4.12-.63a113,113,0,0,1-4-74.08l-4.4-4.38a125.88,125.88,0,0,0,4.33,79.09Z"/><path class="cls-39" d="M383.65,192.54l4.66-.89c.22-16.72.35-28.77.44-37.6,0-4.86.09-10.28.49-17.68.46-8.73,1.18-15.93,1.75-20.86l-3.74.34c-.72,4.66-1.64,11.55-2.23,20-.55,8-.57,13.79-.6,17.69C384.37,162.23,384.19,175,383.65,192.54Z"/><ellipse class="cls-40" cx="379.3" cy="178.75" rx="14.11" ry="9.32" transform="translate(-15.73 38.14) rotate(-5.64)"/><path class="cls-17" d="M451.2,31.52c-6.32-2-18.23-4.74-28.56,1.09a28.91,28.91,0,0,0-6.77,5.49,242.81,242.81,0,0,0-24.13,29.6c-3.77,6.13-8.73,14.61-14.07,25-8.18,16-8.64,19.67-7,22.44,3.2,5.45,14.2,7,20.49,2.72,5.28-3.57,4.2-9.12,7.74-20.33s8.84-18.48,19.38-33.22C424.16,56.11,429,49.4,437.38,42A108.86,108.86,0,0,1,451.2,31.52Z"/></g></g></g><circle class="cls-41" cx="446.02" cy="159.22" r="4.02"/><circle class="cls-41" cx="495.51" cy="145.07" r="4.02"/></g></g></svg>