<svg xmlns="http://www.w3.org/2000/svg" viewBox="0 0 265.7 301.7"><defs><style>.cls-1{fill:#f7874f;}.cls-2,.cls-3,.cls-4,.cls-6,.cls-9{fill:none;}.cls-2,.cls-3{stroke:#c4561f;}.cls-2,.cls-3,.cls-8,.cls-9{stroke-linecap:round;}.cls-2,.cls-8,.cls-9{stroke-linejoin:round;}.cls-2,.cls-3,.cls-4,.cls-5{stroke-width:3px;}.cls-3,.cls-4,.cls-5,.cls-6{stroke-miterlimit:10;}.cls-4,.cls-5{stroke:#000;}.cls-5{fill:#c4561f;}.cls-6{stroke:#f7874f;stroke-width:10px;}.cls-7{fill:#421606;}.cls-8{fill:#00a88f;}.cls-8,.cls-9{stroke:#006959;stroke-width:4px;}</style></defs><g id="Layer_2" data-name="Layer 2"><g id="Layer_1-2" data-name="Layer 1"><g id="Layer_2-2" data-name="Layer 2"><path class="cls-1" d="M49.4,220c-2.8,20.7,3.7,56.2,13.3,71.2,5.9,9.3,72,9,72,9,7.6-.3,72.7-3.3,76.6-9,12-17.3,18.9-52.3,17.6-73.3-17.7-2.8-82.1-3.1-88.8-3.7C127.4,214.1,49.9,216.3,49.4,220Z"/><path class="cls-2" d="M48.8,228.8a264.65,264.65,0,0,0,33.7,19.7c11.1,5.2,23.1,8.6,35.3,8.2,12.7-.4,24.9-5.1,36.7-10s23.4-10.4,36-12.7,26.3-1,36.6,6.5"/><path class="cls-2" d="M52.6,261.8c14.9,8.1,30.3,15.5,46.9,19.3s34.3,3.8,50-2.7c8.2-3.4,15.7-8.5,23.2-13.3s15.4-9.3,24.1-11.4,19.4-1.4,26.8,3.6"/><path class="cls-2" d="M121.1,299.9a65.16,65.16,0,0,0,39.4-9.9c6-3.8,11.3-8.6,17-12.8s12-8,19-9.3,14.8,0,19.5,5.6c.9.7,1.8,1.5,2.7,2.2"/><path class="cls-2" d="M174.1,297.7c3.2-.2,11.4-2.3,14.8-6.3,2.1-2.5,6.6-7.9,11.7-9,3.2-.7,6.9-.1,13.4,1.3"/><path class="cls-3" d="M69.2,224c28,16.9,57.6,18.3,84.5,6.1"/><path class="cls-4" d="M49.4,220c-2.8,20.7,3.7,56.2,13.3,71.2,5.9,9.3,72,9,72,9,7.6-.3,72.7-3.3,76.6-9,12-17.3,18.9-52.3,17.6-73.3-17.7-2.8-82.1-3.1-88.8-3.7C127.4,214.1,49.9,216.3,49.4,220Z"/><path class="cls-5" d="M37.7,175.5a7.35,7.35,0,0,0-3.3,5.9c-.1,4.7-.3,8.2-.5,12.9-.5,12.4-3.1,14.6,3.3,19a37,37,0,0,0,9.6,4.6c53.8,16.1,111.4,14.1,167.1,6.6,7.4-1,18.6-5.3,24.8-9.5,7.4-5.1,5-5.4,4-18.4-.5-5.8.5-10.3,0-17,.1-.3-8.4-5.7-8.4-5.7-25.4-13.4-44.6-16.6-73.2-19.1s-57.5-.4-85.9,4.1C68.8,159.8,46.2,169.9,37.7,175.5Z"/><path class="cls-6" d="M112.1,163.1c-19.8,2.9-42.4,4.5-60.3,13.4-3,1.5-6.4,4-5.8,7.3.5,2.9,3.8,4.3,6.6,5.1,46.7,13.8,96.4,10.4,144.9,6.7,10-.8,20.8-1.8,28.4-8.4,1.8-1.6,3.4-3.9,2.7-6.1-.6-1.7-5-3.7-6.7-4.3C185,163.5,149.7,163.3,112.1,163.1Z"/><path class="cls-7" d="M69.4,168.4a77.3,77.3,0,0,0-18.5,8.5c-2.1,1.3-4.4,3.4-4.1,6.1s2.9,3.9,5.2,4.6c21.2,6.4,43.2,7.7,65,8.9,35.6,2.1,72.2,3.9,105.9-9.8,2.4-1,5.3-3,4.8-6-.4-2.4-2.8-3.4-4.8-3.9C172.6,163.7,119.1,153.2,69.4,168.4Z"/><path class="cls-8" d="M136.2,10.3c3.9,14.6,1.4,30.1-3.1,44.5s-10.9,28.1-15.2,42.6c-7.3,24.9-7.8,52.6,2.9,76.2,2.9,6.4,7,12.9,13.5,15.6,7.5,3.1,16.5.2,22.4-5.3s9.2-13.4,11.5-21.2c6.6-22.7,5.7-47.2.2-70.2-3.9-16.2-10-31.9-16.1-47.4l-12.9-33a4.47,4.47,0,0,0-1.6-2.4C137.1,9.4,136,9.6,136.2,10.3Z"/><path class="cls-9" d="M156.2,158.5a12.8,12.8,0,0,1,7.3-2,3.78,3.78,0,0,0,1.2,4.9,5.72,5.72,0,0,0,5.4.4"/><path class="cls-9" d="M132.2,125.6c1.2,2.1,2.4,4.3,3.6,6.4,4.2-.5,8.4-.9,12.6-1.4a22.47,22.47,0,0,1,1.6,8.1c3.4-1,6.9-2.1,10.3-3.1.4,2.3.9,4.7,2.4,6.4s4.5,2.4,6.2.8"/><path class="cls-9" d="M137.6,113.8l8.1-.6a13.66,13.66,0,0,0,1.8,7.1c3.5-.8,7.1-1.7,10.6-2.5a30.82,30.82,0,0,1,3.2,7.5c2.9-.9,5.7-1.9,8.6-2.8.4.7.9,1.4,1.3,2.1"/><path class="cls-9" d="M167.7,108.6a14.15,14.15,0,0,0-2.8-5.1c-1.4-1.4-3.6-2.2-5.3-1.3-1.3.7-2,2.1-2.9,3.3s-2,2.4-3.5,2.3c-1.2-.1-2.2-1.1-3.1-2-1.4-1.6-2.9-3.2-4.3-4.8a6.35,6.35,0,0,0-3.1-2.3c-2.2-.6-4.3,1.1-5.6,2.9s-2.2,4-4,5.4c-2.4-2-2.9-5.9-5.5-7.7a3.72,3.72,0,0,0-2-.7c-3.6-.1-4.8,5.9-8.4,6.3"/><path class="cls-9" d="M122.5,87.7a11,11,0,0,1,18.8,1c1-1.9,2.6-4.1,4.7-3.8,2.7.4,3.2,4.4,5.7,5.6,1.9,1,4.3-.1,5.9-1.5s2.9-3.3,4.9-4.2c1.3,1,2.5,2,3.8,3"/><path class="cls-9" d="M137.4,165.9c2.1.5,4.1-2.6,5.9-1.6a3.11,3.11,0,0,1,1.2,1.7c1.1,2.4,2.2,4.9,3.2,7.4a38.54,38.54,0,0,1,8.1-2.7,20.26,20.26,0,0,0,.8,7.3c3.7-.3,7.5-.7,11.2-1"/><path class="cls-9" d="M137.3,47.5c2.6,2,5.2,4.1,7.9,6.1,1.8-2.3,3.7-4.6,5.5-6.9"/><path class="cls-9" d="M129,69.4c3.9-1.9,7.8-3.7,11.8-5.6,2.3,2.5,4.5,5.1,6.8,7.6,1.2-1.4,2.4-2.8,3.7-4.2a30.59,30.59,0,0,0,10.2,5.5"/><path class="cls-8" d="M45.1,29.3c-1.6,13.3,3,26.6,8.6,38.8s12.4,24,15.6,37.1c2.8,11.4,2.9,23.4,5.1,35s7.3,23.4,17.4,29.7c5.6,3.5,13.3,4.8,18.8,1.1,3.5-2.3,5.6-6.1,7.1-10,5.7-14.7,3.6-31.3-1.2-46.2-6-18.4-16.5-35.7-31.6-47.9C77.3,60.8,68.7,56,61.5,49.5,55.2,43.7,50.1,36.6,45.1,29.3Z"/><path class="cls-9" d="M49.3,55.5a18.15,18.15,0,0,1,7.9,2.7q.9-4.8,2.1-9.6"/><path class="cls-9" d="M53.6,66.3a56.32,56.32,0,0,0,10.8,1.6c.1-2.6.1-5.2.2-7.8l3.7.3c.1-1.4.2-2.7.3-4.1"/><path class="cls-9" d="M81.5,66.2c-.4,2.6-.9,5.2-1.3,7.8-2.4-1-4.9-2.1-7.4-3.1a1.41,1.41,0,0,0-.9-.1c-.3.1-.5.5-.6.9-.6,2.1-1.1,4.2-1.7,6.2L58.9,76.1"/><path class="cls-9" d="M91.3,75a86.45,86.45,0,0,0-6.9,11.2c-3.5-1.3-7.1-2.6-10.6-3.9-1,3-1.9,5.9-2.9,8.9-2-.2-3.9-.4-5.9-.5"/><path class="cls-9" d="M99.7,85.5c-.7,3-1.4,6.1-2.1,9.1a29.74,29.74,0,0,1-11.1-1.8,22.55,22.55,0,0,1-4.6,9.9,19.44,19.44,0,0,0-8.2-4.2,9.8,9.8,0,0,1-2.9,5.7"/><path class="cls-9" d="M73.5,126.3c1.1-1.2.9-3.1.8-4.7s.2-3.6,1.7-4.3a3.71,3.71,0,0,1,2.1-.2c2.4.3,4.8,1.6,7.2,1.1.2-3.1.4-6.1.7-9.2,4.4.5,8.8,1.1,13.2,1.6.2-3,.4-6,.7-9,.1-.8.2-1.6.8-2a2.34,2.34,0,0,1,2.4.2c2.6,1.1,5.2,2.2,7.8,3.2"/><path class="cls-8" d="M263.2,112.5c-6.8,10.8-17.8,18.2-29.4,23.6s-23.8,9.2-35.3,14.5-22.7,12.7-29.7,23.3a12.84,12.84,0,0,0-2.4,5.8,9.29,9.29,0,0,0,4,7.9,18.87,18.87,0,0,0,8.7,3c11.4,1.2,22.7-3.5,32.5-9.4a130.54,130.54,0,0,0,47-48.9C262,126.3,264.9,119.6,263.2,112.5Z"/><path class="cls-9" d="M245.3,131.8c0,2.2.1,4.4.1,6.6a23.56,23.56,0,0,1,7.5,1.2"/><path class="cls-9" d="M233.6,138a20.78,20.78,0,0,1-.7,9.9,51.39,51.39,0,0,1,11.7,2.9"/><path class="cls-9" d="M218.4,145.6c0,2.2-.1,4.5-.1,6.7a26,26,0,0,1,5.6-.6c.2,2.7.4,5.5.6,8.2l6.8.9c.1,1.1.2,2.2.3,3.4"/><path class="cls-9" d="M200.5,156.2c.7,1.8.4,3.9.9,5.8a6.11,6.11,0,0,0,.7,1.4c1.1,1.3,3.1,1.1,4.8.7.1,2.5.3,5.1.4,7.6a1.16,1.16,0,0,0,.4,1,1.7,1.7,0,0,0,.7.1c1.9-.1,3.7-.2,5.6-.4-.1,2.1-.2,4.3-.3,6.4"/><path class="cls-9" d="M179,166.8c.3,1.9.5,3.7.8,5.6a17.59,17.59,0,0,1,5.1-.4c-.2,2.2-.3,4.4-.5,6.6,1.9,0,3.7-.1,5.6-.1a12.31,12.31,0,0,1-.3,3.3,6.13,6.13,0,0,0,.2,3.3,2.25,2.25,0,0,0,2.7,1.3"/><path class="cls-8" d="M260.9,45.9c-5.5,14.6-17,26.2-29.3,35.9s-25.7,18-37.1,28.7c-11.8,11.1-21.2,24.7-28.6,39.2-3.1,6.1-5.9,13.4-3,19.6,2,4.4,6.5,7.2,11.2,8a26,26,0,0,0,14-2c16-6.5,26.1-22.1,34.9-36.9C240.3,109.5,257.3,79.4,260.9,45.9Z"/><path class="cls-9" d="M174.3,145.9a9.67,9.67,0,0,1,.9,5.8c3,.3,6,.5,9,.8a6,6,0,0,1,2.3.6c1.1.7,1.1,2,.9,3.2-.4,3.3-.9,6.5-1.3,9.8a44.17,44.17,0,0,0,10.3,1.5,2.2,2.2,0,0,1-.1.8"/><path class="cls-9" d="M245.7,71.7a54.34,54.34,0,0,0,.9,5.6c.1.2.1.5.3.7a1.2,1.2,0,0,0,.8.2l5-.3"/><path class="cls-9" d="M234.2,80.7c.5,2.2.9,4.3,1.4,6.5,1.8-.3,3.6-.6,5.4-.8a1.67,1.67,0,0,1,1.2.1,1.86,1.86,0,0,1,.7,1.3c.4,2.2.8,4.4,1.3,6.6l1.3-.3"/><path class="cls-9" d="M221.8,90.1a15.22,15.22,0,0,0,1.7,5.6c2.2-.4,4.3-.8,6.5-1.3.3,2.5.5,5,.8,7.6.1.5.1,1.1.5,1.4a2.3,2.3,0,0,0,2,.3l6.8-1.2"/><path class="cls-9" d="M210.8,99.4l1.5,4.5a5.17,5.17,0,0,0,.6,1.3,2.91,2.91,0,0,0,2.5.9,8,8,0,0,0,2.6-.9c.6,2.8,1.2,5.6,1.8,8.5a2,2,0,0,0,.6,1.3,2.22,2.22,0,0,0,2.1.1l3.5-.9a2.75,2.75,0,0,1,2.5.2,2.25,2.25,0,0,1,.6,1.4c.5,2.1,1,4.1,1.5,6.2"/><path class="cls-9" d="M200.4,108.2c1.3,1.5,1.7,3.5,2.2,5.5s1.2,4,2.9,5c1.9,1.2,4.3.7,6.5.2.1,2.2.1,4.5.4,6.7a3.85,3.85,0,0,0,.6,1.8c.8,1.1,2.3,1.2,3.6,1s2.7-.6,3.9-.2a23.52,23.52,0,0,0,3.4,6.7"/><path class="cls-9" d="M185.2,124l8.9-.9a4.44,4.44,0,0,1,2.3.2,3.64,3.64,0,0,1,1.8,2.9,29,29,0,0,1,.9,5.9c0,1,.2,2.2,1.1,2.6a2.88,2.88,0,0,0,1.3.1c2.1-.3,4.2-.5,6.4-.8,1,3,2.1,6.1,3.1,9.1a10.68,10.68,0,0,1,4.7-.2"/><path class="cls-9" d="M176.1,133c1.4,2,2.8,4.1,4.1,6.1l7.8-1.5c1.3,1.5,1.8,3.5,2.6,5.2s2.5,3.5,4.4,3.2c1.6-.2,3.1-1.7,4.6-1.1a3.75,3.75,0,0,1,1.6,2.1c1.2,2.8,2.3,5.5,3.4,8.3,2.4-.4,4.8-.8,7.2-1.1"/><path class="cls-8" d="M98.4,2c-5.7,49.2-11.4,99.4-.7,147.8,2.2,10.2,5.4,20.5,12.1,28.5s17.8,13,27.7,10c10.6-3.2,17.1-14.7,17.7-25.8s-3.5-21.9-8.1-32c-9.3-20.9-20.5-40.9-29.9-61.8S100.2,25.8,98.4,2Z"/><path class="cls-9" d="M96.1,41.2c1.5,1.1,3,2.2,4.6,3.3.2.1.4.3.6.2a.66.66,0,0,0,.5-.4c1.1-1.3,2.2-2.7,3.4-4"/><path class="cls-9" d="M94.3,55c2.1,1,4.2,2.1,6.3,3.1a2.23,2.23,0,0,0,1.4.3,2.1,2.1,0,0,0,1.1-.8c1.6-1.7,3.1-3.4,4.7-5"/><path class="cls-9" d="M93,66c2.6,2.2,5.2,4.3,7.8,6.5a1.44,1.44,0,0,0,1.5.5,2,2,0,0,0,.8-.8c.6-1,1.2-2,1.8-2.9a1.59,1.59,0,0,1,.9-.9,2.92,2.92,0,0,1,.9.2c1.7.8,3.3,1.5,5,2.3.9-2.6,1.7-5.3,2.6-7.9"/><path class="cls-9" d="M122.8,84.8c-2.5-1-5.1-2-7.6-3.1a2.7,2.7,0,0,0-1.5-.3,3.67,3.67,0,0,0-1.7,1c-1.5,1.5-3.1,2.9-4.6,4.4a2.63,2.63,0,0,1-1.4.9,3.61,3.61,0,0,1-2-.6c-2.2-1.4-4.5-2.8-6.7-4.2a2.72,2.72,0,0,0-1.7-.6c-1.7.1-1.9,2.7-3.4,3.4"/><path class="cls-9" d="M128.5,94.1c-2.4,2.8-4.8,5.7-7.2,8.5a17.52,17.52,0,0,1-8.4-4.9,28.85,28.85,0,0,1-7.1,6.4,9.68,9.68,0,0,1-3.3,1.4c-2.9.4-5.4-1.7-7.7-3.5a48.34,48.34,0,0,1-2.2,6.4"/><path class="cls-9" d="M133.3,106l-6.4,7a35.76,35.76,0,0,1-9.1-3.5,20.09,20.09,0,0,1-3.5,5.1,7.16,7.16,0,0,1-5.7,2.1,11.69,11.69,0,0,1-2-.6c-1.9-.8-3.8-1.5-5.7-2.3a38.06,38.06,0,0,1-7.2,8.3"/><path class="cls-9" d="M140,119.6c-2.3,2.1-4.6,4.1-6.8,6.2a26.54,26.54,0,0,0-6-3.8,46.13,46.13,0,0,1-8.5,8.6,30.77,30.77,0,0,0-7.2-4.7,17.77,17.77,0,0,1-6.8,6.8,9.88,9.88,0,0,1-9.3.1"/><path class="cls-9" d="M145.6,130.6a25.75,25.75,0,0,1-13.3,5.2,7.3,7.3,0,0,1,1.1,4.3A42.37,42.37,0,0,0,124,139a5.26,5.26,0,0,1-3.6,4.9,9.4,9.4,0,0,1-6.4-.4c.7,3.1-1.6,6.2-4.5,7.3s-6.2.7-9.2-.1"/><path class="cls-9" d="M150.5,144a31.91,31.91,0,0,1-11.1.8,19.73,19.73,0,0,0-1.6,9c-2.8-.8-5.7-1.7-8.5-2.5a38.43,38.43,0,0,0-2.8,8.9,39,39,0,0,1-10.1-2.9c-.3,1.9.2,3.8.3,5.8s-.3,4.1-1.9,5.2c-2.3,1.6-5.8.2-8.2,1.6"/><path class="cls-9" d="M153.8,157.1a27.26,27.26,0,0,1-12.7,0,55,55,0,0,1-3.6,13.8,17.47,17.47,0,0,0-7.7-2.8c.3,3.5.6,6.9.8,10.4a29,29,0,0,0-11-3.9,20.71,20.71,0,0,1-2,8.9"/><path class="cls-8" d="M21.9,60.3a126,126,0,0,0,15,68.3,126.41,126.41,0,0,0,49.3,49.6c4.8,2.6,10,5,15.4,4.3a17,17,0,0,0,11.9-8.4,25.07,25.07,0,0,0,3-14.5c-1-15.6-12.2-28.8-24.9-37.9S64.4,106.2,51.9,96.8C39.7,87.4,29.8,75.2,21.9,60.3Z"/><path class="cls-9" d="M26.2,94a39.75,39.75,0,0,1,8.4,2.1l2.1-10.2"/><path class="cls-9" d="M28.4,107c3.6.5,7.2.9,10.9,1.4.6-2.6,1.2-5.3,1.7-7.9.1-.3.1-.5.3-.7a1.18,1.18,0,0,1,1-.1c2.4.4,4.9.8,7.3,1.3l.3-4.5"/><path class="cls-9" d="M65,106.8a34,34,0,0,0-2.3,9.4c-2.5-1.4-5-2.8-7.5-4.1a2.9,2.9,0,0,0-1.8-.5c-1.2.1-1.8,1.5-1.8,2.7s.3,2.4-.1,3.5a4.41,4.41,0,0,1-3.2,2.4,10.2,10.2,0,0,1-4.2-.4c-1.6-.3-3.3-.7-4.9-1-.6-.1-1.2-.2-1.6.2a2.22,2.22,0,0,0-.5,1.1l-1.2,5.7"/><path class="cls-9" d="M79.9,116.9a29.52,29.52,0,0,1-11.3,2.9,19.1,19.1,0,0,1,.6,5.8c-3.1-.5-6.2-1-9.2-1.6a16.56,16.56,0,0,1-1.4,7.9c-3.7-.2-7.4-.3-11.1-.5a33.29,33.29,0,0,1-1.6,10.8"/><path class="cls-9" d="M96,128.7c-3.7,2.5-8.6,2.1-13,1.7-.9,3.5-1.8,7-2.8,10.5-3-1.5-6.1-3-9.1-4.5a1.23,1.23,0,0,0-1-.2,1.64,1.64,0,0,0-.7,1.2c-.4,2.8-.7,5.7-1.1,8.6-2.4-.8-4.8-1.5-7.1-2.3-.4-.1-1-.3-1.3,0a1.14,1.14,0,0,0-.3.8c-.4,3.4-.8,6.9-1.2,10.3"/><path class="cls-9" d="M103.9,138.2c-2.6-.6-5.2-1.2-7.7-1.7-.1,2.2-.1,4.5-.2,6.7a3.62,3.62,0,0,1-.6,2.3c-1,1.1-2.9.5-4.1-.5a8.47,8.47,0,0,0-1.9-1.4,1.82,1.82,0,0,0-2.2.5,2.51,2.51,0,0,0-.2,1.5c.1,2,.2,4,.3,5.9a57.39,57.39,0,0,0-9.1-3.1,26.56,26.56,0,0,1,0,6.9,46.33,46.33,0,0,0-9.8-1.4,19.36,19.36,0,0,1-1.4,9.2"/><path class="cls-9" d="M81.7,175.9a26.49,26.49,0,0,1,.2-10.5l8.5-.3a11.2,11.2,0,0,1,1.3-7.6c2.8.2,5.7.3,8.5.5.5-4,1-8,1.4-12a46.11,46.11,0,0,0,10.5.2"/><path class="cls-8" d="M2,121.8c8,9.4,15.6,19.3,24,28.4s17.8,17.5,28.7,23.4,23.5,9,35.8,7.4c3.8-.5,7.8-1.8,9.8-5,1.5-2.6,1.3-5.9.6-8.8-3-12.1-13.8-21-25.4-25.5s-24.3-5.4-36.7-6.9C26.5,133.1,13.8,130.6,2,121.8Z"/><path class="cls-9" d="M94.7,179.5a88.7,88.7,0,0,0-1.4-11.4c2.3-.2,4.6-.3,6.9-.5"/><path class="cls-9" d="M18.8,140.6c2.4.1,4.8.1,7.2.2a24.09,24.09,0,0,0,.1-7.1"/><path class="cls-9" d="M27.6,151.9a37.45,37.45,0,0,0,9.3-2.4c-.2-2.3-.4-4.5-.7-6.8,2.5-.4,5-.7,7.5-1.1-.1-1.8-.2-3.5-.3-5.3"/><path class="cls-9" d="M35.7,159a69.89,69.89,0,0,0,14.4-2.4c-.9-3.7-1.9-7.4-2.8-11.1a16.35,16.35,0,0,1,4.9-.5,6.8,6.8,0,0,0,4.6-1.6c1.2-1.2,1.4-3.4,0-4.4"/><path class="cls-9" d="M55.4,172.3c-.5-3.2-1-6.4-1.5-9.5a88.06,88.06,0,0,1,12.4-3.6l-3-11.1c2.6-.9,5.3-1.7,7.9-2.6,0-1,.1-1.9.1-2.9"/><path class="cls-9" d="M68.1,178c-.1-3.5-.3-7-.4-10.5a73.07,73.07,0,0,1,11.9-5,50,50,0,0,0-1.1-12.2l7.7-.9"/><path class="cls-9" d="M80.7,178.8a28.81,28.81,0,0,1-2.7-5.9c-.1-.5-.3-1,0-1.4s.7-.5,1-.6c2.6-.8,5.2-1.7,7.8-2.5"/><path class="cls-8" d="M231.3,41.3c-15,18.1-32.1,34.6-46.2,53.4s-25.5,40.7-26.9,64.2c-.3,4.6-.2,9.4,1.7,13.7s5.6,8,10.2,8.6c4.9.7,9.6-2.2,13.2-5.5,7.3-6.8,12.1-15.9,15.4-25.3s5.4-19.2,8.3-28.8C214.9,94.8,229,69.5,231.3,41.3Z"/><path class="cls-9" d="M179.8,107a23,23,0,0,0,5.3,7.8l4.8-3"/><path class="cls-9" d="M211.6,67.6c.8,2.6,1.6,5.3,2.4,7.9a1.61,1.61,0,0,0,.4.7,1.69,1.69,0,0,0,1.4.1,68.17,68.17,0,0,0,7.7-2.3"/><path class="cls-9" d="M201.9,78.4a48.69,48.69,0,0,1,3,7.1c2.1-.1,4.1-.2,6.2-.4a6.59,6.59,0,0,1,3.1.3,6.51,6.51,0,0,1,2.7,3.2"/><path class="cls-9" d="M188.1,93.9c2.9,1.7,6.8-1.1,10.1.1,2.4.9,3.4,3.7,4.2,6.2,2.3-.4,4.5-.7,6.8-1.1l2.4,4.2"/><path class="cls-9" d="M208.6,110.9a17.48,17.48,0,0,1-1.8-2.9,3,3,0,0,0-2.8-1.7c-1.1.2-1.8,1.3-2.5,2.2s-2,1.7-2.9,1c-.6-.4-.7-1.2-.9-1.8a8.46,8.46,0,0,0-3.9-4.8"/><path class="cls-9" d="M205.7,127.3c-1.3-1.8-2.7-3.6-4.1-5.4a2.34,2.34,0,0,0-.7-.7c-.8-.5-1.8,0-2.6.5-1.3.8-2.4,1.9-3.8,2.4s-3.3.4-4.2-.8"/><path class="cls-9" d="M200.7,141.9c-1.2-1.7-2.3-3.4-3.4-5.1l-5.4,4.8a11.7,11.7,0,0,0-4.7-4.4"/><path class="cls-9" d="M192.4,160.5c-.7-1.9-1.4-3.7-2.1-5.6a2.14,2.14,0,0,0-.8-1.2,1.89,1.89,0,0,0-1.6.3c-1.8,1-3.7,2.1-5.5,3.1"/><path class="cls-9" d="M186,169.8c-.6-1.2-1.3-2.4-1.9-3.6-2.5,1.8-4.9,3.6-7.4,5.4a3.88,3.88,0,0,1-1.1.6,1.11,1.11,0,0,1-1.1-.4"/><path class="cls-8" d="M193.7,17.8c-7.8,52.8-53.9,94.6-58.8,147.7-.6,6.5-.3,13.8,4.2,18.6,4.9,5.3,13.6,5.7,20.1,2.5s11.1-9.2,14.8-15.4c12-20.5,15.5-44.8,18.3-68.4C195.5,74.8,198.1,46.3,193.7,17.8Z"/><path class="cls-9" d="M184.1,56.7a10.82,10.82,0,0,0,5,6.1,35.75,35.75,0,0,1,5.1-4.5"/><path class="cls-9" d="M177.4,70.8a8.42,8.42,0,0,0,.8,2.7,2.83,2.83,0,0,0,2.2,1.5c1.9,0,3.2-2.5,5.1-2.3a3.47,3.47,0,0,1,2.1,1.5,10.53,10.53,0,0,1,1.7,2.9c.1.2.3.5.5.5s.2-.1.3-.2c1-1,2.1-2,3.1-3"/><path class="cls-9" d="M170.2,86.5c.9.5,2.1-.3,3.1-.5,1.8-.3,3.4,1.2,4.1,2.9s1.1,3.5,2.2,5c1.6-1.1,3.2-2.1,4.8-3.2a15.75,15.75,0,0,0,1.6,4.6,2.44,2.44,0,0,0,.9,1.1c.9.5,2-.2,2.7-.8s1.7-1.4,2.7-1.2"/><path class="cls-9" d="M161.9,96.4c1.2,3.3,2.3,6.7,3.5,10a14.35,14.35,0,0,1,3.6-2.9,4.59,4.59,0,0,1,4.4-.1,6.35,6.35,0,0,1,2.3,2.8c.8,1.3,1.6,2.7,2.3,4a4.94,4.94,0,0,0,1.6,1.9c1.4.7,2.9-.3,4-1.3s2.1-2.4,3.6-2.6a10.81,10.81,0,0,0,2.6,5.1"/><path class="cls-9" d="M149.8,119.6c2.4-1,4.9-2,7.3-3a16.25,16.25,0,0,0,2,6.1c1.2,1.8,3.4,3.1,5.5,2.6s3.8-2.6,5.9-2.3c3.5.6,3.3,6.9,6.7,7.5a5.26,5.26,0,0,0,3.7-1.3c1.1-.8,2.2-1.7,3.6-1.7s2.8,1.3,2.3,2.5"/><path class="cls-9" d="M142.8,137.8c2-1.2,4-2.5,6-3.7l8.4,8.7a6.55,6.55,0,0,0,1.8,1.5c1.8.8,3.8-.3,5.4-1.5s3.1-2.7,5-2.9c1.2,3.6,2.3,7.2,3.5,10.8a49,49,0,0,1,10-2.6"/><path class="cls-9" d="M174.9,168.7c-1.4-3.4-2.8-6.9-4.3-10.3-2.9,2.4-5.7,4.8-8.6,7.2-1.6-1.8-1.8-4.5-2.4-7s-2.1-5.1-4.3-4.9a5.72,5.72,0,0,0-2.8,1.4c-3.2,2.4-6.4,4.9-9.6,7.3a27.26,27.26,0,0,0-3.8-7.4"/><path class="cls-9" d="M136.7,171.9a5.35,5.35,0,0,0,6.4,2.4,5.49,5.49,0,0,1,1.7-.5,2.65,2.65,0,0,1,1.9,1.8,8.25,8.25,0,0,0,1,2.6c1.2,1.7,3.9,1.3,5.7.2s3.3-2.7,5.3-3.3a5.27,5.27,0,0,0,6.3,4"/></g></g></g></svg>