<svg xmlns="http://www.w3.org/2000/svg" viewBox="0 0 265.66 301.67"><defs><style>.cls-1{fill:#f7874f;}.cls-10,.cls-2,.cls-3,.cls-4,.cls-6,.cls-8{fill:none;}.cls-2,.cls-3{stroke:#c4561f;}.cls-10,.cls-2,.cls-3,.cls-9{stroke-linecap:round;}.cls-10,.cls-2,.cls-9{stroke-linejoin:round;}.cls-2,.cls-3,.cls-4,.cls-5{stroke-width:3px;}.cls-3,.cls-4,.cls-5,.cls-6,.cls-8{stroke-miterlimit:10;}.cls-4,.cls-5{stroke:#000;}.cls-5{fill:#c4561f;}.cls-6{stroke:#f7874f;stroke-width:10px;}.cls-7{fill:#421606;}.cls-8{stroke:#3b3b3b;stroke-width:5px;}.cls-9{fill:#00a88f;}.cls-10,.cls-9{stroke:#006959;stroke-width:4px;}</style></defs><g id="Layer_2" data-name="Layer 2"><g id="Layer_1-2" data-name="Layer 1"><g id="Layer_2-2" data-name="Layer 2"><path class="cls-1" d="M49.38,219.91c-2.83,20.66,3.74,56.21,13.27,71.22,5.93,9.33,72,9,72,9,7.55-.3,72.71-3.34,76.63-9,12-17.35,18.9-52.32,17.55-73.35-17.71-2.8-82-3.06-88.78-3.74C127.34,214.06,49.88,216.22,49.38,219.91Z"/><path class="cls-2" d="M48.72,228.8a263.66,263.66,0,0,0,33.72,19.68c11,5.18,23.14,8.63,35.33,8.2,12.73-.45,24.92-5.06,36.65-10s23.42-10.41,36-12.67,26.31-1,36.59,6.53"/><path class="cls-2" d="M52.57,261.7c14.9,8.08,30.34,15.53,46.86,19.34s34.31,3.81,50-2.71c8.24-3.43,15.65-8.54,23.18-13.32s15.4-9.33,24.07-11.44,19.36-1.37,26.8,3.56"/><path class="cls-2" d="M121,299.87a65.4,65.4,0,0,0,39.41-9.9c6-3.8,11.33-8.56,17-12.77s12-8,19-9.31,14.78.05,19.46,5.6l2.74,2.23"/><path class="cls-2" d="M174.05,297.66c3.21-.25,11.43-2.26,14.81-6.29,2.07-2.47,6.63-7.9,11.73-9,3.21-.67,6.9-.05,13.38,1.31"/><path class="cls-3" d="M69.13,224c28,16.9,57.58,18.31,84.48,6.14"/><path class="cls-4" d="M49.38,219.91c-2.83,20.66,3.74,56.21,13.27,71.22,5.93,9.33,72,9,72,9,7.55-.3,72.71-3.34,76.63-9,12-17.35,18.9-52.32,17.55-73.35-17.71-2.8-82-3.06-88.78-3.74C127.34,214.06,49.88,216.22,49.38,219.91Z"/><path class="cls-5" d="M37.63,175.41a7.22,7.22,0,0,0-3.28,5.93c-.09,4.73-.33,8.17-.53,12.93-.51,12.37-3.05,14.58,3.35,19a33.39,33.39,0,0,0,9.61,4.55C100.57,234,158.2,232,213.91,224.46c7.44-1,18.59-5.27,24.8-9.49,7.45-5.08,5-5.42,4-18.42-.47-5.85.52-10.31,0-17,.07-.34-8.38-5.67-8.38-5.67-25.41-13.41-44.57-16.61-73.19-19.11s-57.5-.38-85.89,4.06C68.81,159.8,46.15,169.85,37.63,175.41Z"/><path class="cls-6" d="M112.06,163c-19.82,2.85-42.4,4.48-60.35,13.35-3,1.49-6.4,4-5.81,7.33.52,2.9,3.79,4.3,6.62,5.13,46.65,13.75,96.4,10.39,144.89,6.69,10-.77,20.83-1.84,28.44-8.44,1.78-1.55,3.45-3.88,2.65-6.1-.61-1.71-5-3.74-6.68-4.35C185,163.5,149.71,163.24,112.06,163Z"/><path class="cls-7" d="M69.41,168.33a78.11,78.11,0,0,0-18.53,8.47c-2.08,1.3-4.41,3.37-4.07,6.12s2.94,3.91,5.15,4.58c21.18,6.38,43.18,7.66,65,8.92,35.61,2.05,72.24,3.94,106-9.82,2.41-1,5.31-3,4.79-6-.42-2.39-2.81-3.37-4.82-3.89C172.57,163.64,119.11,153.18,69.41,168.33Z"/><circle class="cls-8" cx="198.66" cy="284.57" r="2"/><circle class="cls-8" cx="209.66" cy="282.57" r="0.5"/><circle class="cls-8" cx="203.16" cy="274.07" r="0.5"/><ellipse class="cls-8" cx="188.54" cy="280.82" rx="0.12" ry="0.25"/><path class="cls-9" d="M136.19,10.3c3.93,14.56,1.45,30.13-3.05,44.53S122.19,83,117.93,97.43c-7.34,24.92-7.78,52.56,2.89,76.24,2.89,6.42,7,12.88,13.5,15.59,7.5,3.12,16.52.25,22.44-5.32s9.23-13.36,11.51-21.17c6.62-22.71,5.68-47.16.17-70.17-3.89-16.25-10-31.88-16.06-47.44q-6.44-16.47-12.86-32.95A4.55,4.55,0,0,0,138,9.84C137.11,9.33,136,9.52,136.19,10.3Z"/><path class="cls-10" d="M156.2,158.48a13.35,13.35,0,0,1,7.35-2,3.79,3.79,0,0,0,1.21,5,5.92,5.92,0,0,0,5.36.41"/><path class="cls-10" d="M132.13,125.53l3.63,6.39,12.56-1.4a23.17,23.17,0,0,1,1.6,8.1l10.3-3.13c.41,2.28.88,4.69,2.42,6.43s4.51,2.43,6.16.79"/><path class="cls-10" d="M137.52,113.73l8-.63a13.49,13.49,0,0,0,1.84,7.07L158,117.68a30,30,0,0,1,3.21,7.54l8.59-2.83c.44.71.88,1.42,1.33,2.13"/><path class="cls-10" d="M167.69,108.56a13.88,13.88,0,0,0-2.75-5.12c-1.37-1.4-3.58-2.16-5.32-1.27-1.31.67-2,2.07-2.87,3.28s-2,2.42-3.5,2.33c-1.25-.08-2.22-1.08-3.06-2L145.88,101a7,7,0,0,0-3.14-2.35c-2.17-.57-4.31,1.09-5.61,2.92s-2.23,4-4,5.35c-2.44-2-2.92-5.88-5.52-7.72a3.81,3.81,0,0,0-2-.74c-3.63-.1-4.78,5.9-8.39,6.32"/><path class="cls-10" d="M122.51,87.62a10.93,10.93,0,0,1,18.76,1c1-1.88,2.56-4.06,4.67-3.75,2.7.4,3.23,4.38,5.66,5.63,1.91,1,4.26-.1,5.86-1.54s2.92-3.28,4.88-4.18l3.8,3"/><path class="cls-10" d="M137.35,165.87c2.07.46,4.05-2.59,5.9-1.56a3.27,3.27,0,0,1,1.2,1.65c1.08,2.45,2.15,4.91,3.23,7.36a41.79,41.79,0,0,1,8.06-2.72,20.49,20.49,0,0,0,.8,7.3l11.23-1"/><path class="cls-10" d="M137.27,47.47l7.88,6.13,5.5-6.88"/><path class="cls-10" d="M129,69.39l11.77-5.61,6.78,7.59c1.22-1.39,2.43-2.78,3.65-4.16a32.06,32.06,0,0,0,10.18,5.55"/><path class="cls-9" d="M45,29.22c-1.62,13.34,3,26.64,8.58,38.84s12.4,24,15.64,37.07c2.85,11.44,2.86,23.4,5.11,35s7.35,23.43,17.36,29.66c5.63,3.5,13.26,4.78,18.8,1.13,3.46-2.28,5.59-6.1,7.08-10,5.65-14.68,3.64-31.28-1.23-46.23-6-18.44-16.47-35.73-31.57-47.89C77.24,60.71,68.62,56,61.44,49.41,55.14,43.63,50.06,36.55,45,29.22Z"/><path class="cls-10" d="M49.27,55.41a18.64,18.64,0,0,1,7.95,2.74c.56-3.22,1.26-6.41,2.08-9.57"/><path class="cls-10" d="M53.61,66.22a58,58,0,0,0,10.81,1.56q.1-3.91.22-7.83l3.68.29c.1-1.37.21-2.74.31-4.11"/><path class="cls-10" d="M81.48,66.13,80.19,74l-7.36-3.11a1.17,1.17,0,0,0-.89-.12,1.18,1.18,0,0,0-.56.89c-.55,2.08-1.1,4.17-1.66,6.25L59,76.09"/><path class="cls-10" d="M91.3,74.92a88.64,88.64,0,0,0-6.87,11.22L73.82,82.22l-2.88,8.86-5.89-.53"/><path class="cls-10" d="M99.69,85.5l-2.1,9.1a32.15,32.15,0,0,1-11.13-1.76,21.61,21.61,0,0,1-4.64,9.93,18.75,18.75,0,0,0-8.17-4.15,10,10,0,0,1-2.89,5.66"/><path class="cls-10" d="M73.44,126.23c1.09-1.21.92-3,.83-4.68s.19-3.58,1.65-4.29a3.64,3.64,0,0,1,2.07-.21c2.41.31,4.76,1.59,7.15,1.15L85.8,109,99,110.65c.22-3,.44-6,.65-9a2,2,0,0,1,3.22-1.89l7.81,3.24"/><path class="cls-9" d="M263.2,112.49c-6.79,10.79-17.85,18.21-29.38,23.64s-23.79,9.18-35.34,14.55S175.79,163.33,168.82,174a12.64,12.64,0,0,0-2.36,5.77,9.27,9.27,0,0,0,4,7.88,17.76,17.76,0,0,0,8.65,2.95c11.42,1.23,22.66-3.47,32.5-9.39a130.48,130.48,0,0,0,47-48.91C261.92,126.25,264.82,119.51,263.2,112.49Z"/><path class="cls-10" d="M245.31,131.78q0,3.28.1,6.57a23.5,23.5,0,0,1,7.53,1.25"/><path class="cls-10" d="M233.52,138a20.36,20.36,0,0,1-.71,9.86,52.21,52.21,0,0,1,11.74,2.95"/><path class="cls-10" d="M218.38,145.56c0,2.24-.07,4.47-.1,6.71a21.13,21.13,0,0,1,5.55-.59c.2,2.74.41,5.48.61,8.22l6.81.92c.11,1.12.23,2.24.34,3.36"/><path class="cls-10" d="M200.47,156.15c.66,1.85.42,3.92.95,5.82a3.66,3.66,0,0,0,.72,1.45c1.13,1.29,3.14,1.05,4.81.7.14,2.54.29,5.08.43,7.62a1.24,1.24,0,0,0,.4,1,1.18,1.18,0,0,0,.7.1l5.62-.37c-.11,2.13-.22,4.27-.34,6.4"/><path class="cls-10" d="M179,166.78q.39,2.79.77,5.58a15.45,15.45,0,0,1,5.07-.37c-.16,2.21-.31,4.41-.47,6.62l5.6-.11a12,12,0,0,1-.3,3.32,5.54,5.54,0,0,0,.25,3.28,2.31,2.31,0,0,0,2.74,1.3"/><path class="cls-9" d="M260.84,45.84c-5.51,14.63-17,26.21-29.29,35.88s-25.69,18-37.08,28.69c-11.83,11.13-21.24,24.68-28.6,39.16-3.11,6.12-5.88,13.4-3,19.64,2,4.36,6.51,7.23,11.23,8a25.93,25.93,0,0,0,14-2c16-6.49,26.07-22.13,34.94-36.94C240.3,109.5,257.26,79.37,260.84,45.84Z"/><path class="cls-10" d="M174.3,145.84a9.69,9.69,0,0,1,.88,5.78l9,.79a5.1,5.1,0,0,1,2.26.56c1.11.71,1.06,2.05.91,3.19-.43,3.27-.87,6.54-1.3,9.81a42.48,42.48,0,0,0,10.27,1.52c0,.26,0,.53-.05.79"/><path class="cls-10" d="M245.63,71.62a55,55,0,0,0,.88,5.56,1.12,1.12,0,0,0,.3.66,1.18,1.18,0,0,0,.85.17l5-.33"/><path class="cls-10" d="M234.12,80.69c.48,2.17.95,4.34,1.43,6.51l5.44-.84a1.79,1.79,0,0,1,1.19.09,1.84,1.84,0,0,1,.65,1.28c.43,2.21.85,4.41,1.28,6.62l1.34-.31"/><path class="cls-10" d="M221.73,90.08a14.16,14.16,0,0,0,1.71,5.6l6.48-1.26.81,7.57a1.7,1.7,0,0,0,2.49,1.71l6.77-1.18"/><path class="cls-10" d="M210.73,99.38c.51,1.49,1,3,1.52,4.48a4,4,0,0,0,.61,1.28,2.82,2.82,0,0,0,2.51.87,8.14,8.14,0,0,0,2.6-.91l1.8,8.48a1.74,1.74,0,0,0,2.69,1.47l3.48-.9a2.68,2.68,0,0,1,2.49.19,2.64,2.64,0,0,1,.63,1.36l1.53,6.21"/><path class="cls-10" d="M200.38,108.16c1.34,1.46,1.74,3.52,2.21,5.45s1.18,4,2.86,5c1.89,1.2,4.34.73,6.52.23a64.13,64.13,0,0,0,.38,6.65,4,4,0,0,0,.55,1.8c.76,1.1,2.32,1.23,3.64,1s2.68-.6,4-.21a25,25,0,0,0,3.41,6.73"/><path class="cls-10" d="M185.12,123.94l8.93-.87a4.42,4.42,0,0,1,2.26.18,4.05,4.05,0,0,1,1.85,2.86,27,27,0,0,1,.91,5.86c0,1,.17,2.2,1.08,2.59a2.49,2.49,0,0,0,1.33.07l6.36-.78q1.54,4.54,3.1,9.09a10.9,10.9,0,0,1,4.72-.25"/><path class="cls-10" d="M176.05,133l4.13,6.09,7.81-1.54c1.32,1.45,1.77,3.47,2.61,5.23s2.5,3.49,4.44,3.24c1.61-.21,3.13-1.73,4.62-1.09a3.64,3.64,0,0,1,1.63,2.11q1.74,4.13,3.36,8.31l7.15-1.13"/><path class="cls-9" d="M98.37,2c-5.73,49.16-11.4,99.43-.7,147.75,2.25,10.17,5.39,20.5,12.1,28.47s17.77,13.05,27.74,10.05c10.64-3.2,17.1-14.71,17.68-25.81s-3.54-21.87-8.05-32c-9.28-20.92-20.52-40.93-29.92-61.79S100.19,25.75,98.37,2Z"/><path class="cls-10" d="M96,41.13l4.55,3.3a.94.94,0,0,0,.64.25.9.9,0,0,0,.51-.38l3.37-4"/><path class="cls-10" d="M94.28,54.94,100.57,58a1.68,1.68,0,0,0,2.49-.43l4.7-5"/><path class="cls-10" d="M92.93,66l7.81,6.52c.42.35.94.72,1.46.54a1.6,1.6,0,0,0,.76-.78l1.77-2.93c.23-.38.51-.79.94-.87a1.58,1.58,0,0,1,.89.21l5,2.29L114.11,63"/><path class="cls-10" d="M122.73,84.72l-7.58-3.06a3.14,3.14,0,0,0-1.49-.33,3.21,3.21,0,0,0-1.74,1l-4.62,4.41a2.85,2.85,0,0,1-1.39.89,2.92,2.92,0,0,1-2-.64l-6.69-4.21a2.89,2.89,0,0,0-1.7-.62c-1.66.14-1.9,2.72-3.4,3.44"/><path class="cls-10" d="M128.45,94l-7.21,8.53a18.22,18.22,0,0,1-8.42-4.91,27.3,27.3,0,0,1-7.12,6.43,8.63,8.63,0,0,1-3.33,1.39c-2.89.38-5.44-1.72-7.68-3.54a37.33,37.33,0,0,1-2.22,6.35"/><path class="cls-10" d="M133.28,106l-6.39,7a36,36,0,0,1-9.12-3.52,19.89,19.89,0,0,1-3.54,5.13,6.85,6.85,0,0,1-5.67,2.06,10.31,10.31,0,0,1-2-.65l-5.69-2.28a39.38,39.38,0,0,1-7.18,8.32"/><path class="cls-10" d="M140,119.53l-6.82,6.2a25.88,25.88,0,0,0-6-3.77,43.8,43.8,0,0,1-8.47,8.57,31.66,31.66,0,0,0-7.17-4.72,18.09,18.09,0,0,1-6.8,6.79,9.81,9.81,0,0,1-9.32.08"/><path class="cls-10" d="M145.52,130.56a26.12,26.12,0,0,1-13.29,5.2,7.2,7.2,0,0,1,1.11,4.29,46.33,46.33,0,0,0-9.38-1.12,5.26,5.26,0,0,1-3.6,4.93,9,9,0,0,1-6.38-.43c.73,3-1.61,6.2-4.53,7.33s-6.22.67-9.25-.15"/><path class="cls-10" d="M150.46,144a32.88,32.88,0,0,1-11.05.8,19.85,19.85,0,0,0-1.59,9l-8.5-2.5a39.15,39.15,0,0,0-2.82,8.89,41.39,41.39,0,0,1-10.1-2.9c-.28,1.91.2,3.83.3,5.76s-.33,4.08-1.9,5.2c-2.31,1.64-5.75.2-8.22,1.59"/><path class="cls-10" d="M153.72,157.06a28.42,28.42,0,0,1-12.68,0,56.83,56.83,0,0,1-3.55,13.8,17.61,17.61,0,0,0-7.69-2.82l.84,10.38a29.47,29.47,0,0,0-11-3.9,20.41,20.41,0,0,1-2,8.93"/><path class="cls-9" d="M21.91,60.3a125.33,125.33,0,0,0,64.3,117.85c4.75,2.63,10,5,15.42,4.29A16.88,16.88,0,0,0,113.52,174a25.68,25.68,0,0,0,3-14.54c-1-15.61-12.23-28.78-24.93-37.91s-27.25-15.47-39.7-24.93C39.7,87.36,29.73,75.13,21.91,60.3Z"/><path class="cls-10" d="M26.12,93.92A44.8,44.8,0,0,1,34.57,96l2.1-10.19"/><path class="cls-10" d="M28.4,107l10.87,1.37L41,100.42a1.3,1.3,0,0,1,.33-.72,1.25,1.25,0,0,1,1-.12l7.32,1.28c.12-1.5.24-3,.35-4.5"/><path class="cls-10" d="M64.93,106.74a34,34,0,0,0-2.35,9.36L55.09,112a3.11,3.11,0,0,0-1.77-.55c-1.17.13-1.77,1.51-1.79,2.69a11.12,11.12,0,0,1-.12,3.51A4,4,0,0,1,48.16,120a12.09,12.09,0,0,1-4.18-.36l-4.91-1a1.9,1.9,0,0,0-1.64.16,1.9,1.9,0,0,0-.5,1.11c-.4,1.89-.81,3.78-1.21,5.66"/><path class="cls-10" d="M79.86,116.82a28.32,28.32,0,0,1-11.31,2.91,16.17,16.17,0,0,1,.57,5.83L59.9,124a15.65,15.65,0,0,1-1.45,7.89l-11.14-.51a32.68,32.68,0,0,1-1.63,10.79"/><path class="cls-10" d="M96,128.67c-3.74,2.46-8.59,2.11-13,1.67L80.19,140.8l-9.12-4.52a1.36,1.36,0,0,0-1-.2c-.45.15-.59.72-.65,1.2-.36,2.85-.73,5.71-1.09,8.56l-7.13-2.32c-.44-.14-1-.26-1.31,0a1.34,1.34,0,0,0-.3.81q-.61,5.16-1.24,10.33"/><path class="cls-10" d="M103.83,138.13l-7.73-1.74L96,143.11a3.47,3.47,0,0,1-.59,2.27c-1,1.14-2.91.47-4.09-.5a7.4,7.4,0,0,0-1.94-1.38,1.79,1.79,0,0,0-2.15.51,2.46,2.46,0,0,0-.22,1.45l.27,5.94a53.62,53.62,0,0,0-9.14-3.06,23.6,23.6,0,0,1,0,6.92,44.19,44.19,0,0,0-9.78-1.38A20,20,0,0,1,67,163.05"/><path class="cls-10" d="M81.69,175.87a26.57,26.57,0,0,1,.21-10.51l8.47-.32a11.25,11.25,0,0,1,1.26-7.58l8.48.51q.72-6,1.45-12a44.45,44.45,0,0,0,10.5.2"/><path class="cls-9" d="M2,121.7c8,9.44,15.56,19.32,24,28.43s17.76,17.53,28.68,23.4,23.54,9.05,35.82,7.37c3.76-.52,7.84-1.75,9.79-5,1.54-2.59,1.34-5.86.62-8.79-3-12.11-13.75-21-25.39-25.49s-24.29-5.35-36.66-6.93S13.75,130.59,2,121.7Z"/><path class="cls-10" d="M94.63,179.49a76.28,76.28,0,0,0-1.4-11.37l6.93-.47"/><path class="cls-10" d="M18.73,140.56l7.15.22a22.3,22.3,0,0,0,.11-7.06"/><path class="cls-10" d="M27.57,151.88a36.39,36.39,0,0,0,9.29-2.39c-.22-2.27-.45-4.53-.67-6.8l7.53-1.07c-.09-1.78-.19-3.55-.28-5.33"/><path class="cls-10" d="M35.71,159a72.13,72.13,0,0,0,14.45-2.35q-1.39-5.55-2.78-11.11a18.14,18.14,0,0,1,4.94-.54,6.89,6.89,0,0,0,4.6-1.63c1.17-1.19,1.36-3.43,0-4.38"/><path class="cls-10" d="M55.37,172.23,53.9,162.7a83.85,83.85,0,0,1,12.43-3.63l-3-11.13,7.89-2.59.12-2.9"/><path class="cls-10" d="M68.1,177.9c-.13-3.5-.27-7-.4-10.49a73.7,73.7,0,0,1,11.94-5,48.74,48.74,0,0,0-1.12-12.16l7.72-.9"/><path class="cls-10" d="M80.69,178.78A25.56,25.56,0,0,1,78,172.89a1.73,1.73,0,0,1,0-1.41,1.84,1.84,0,0,1,1-.63l7.82-2.49"/><path class="cls-9" d="M231.3,41.21c-15,18.13-32.05,34.59-46.2,53.42s-25.52,40.7-26.95,64.21c-.28,4.64-.15,9.43,1.65,13.71s5.55,8,10.16,8.61c4.91.66,9.62-2.19,13.25-5.55,7.33-6.79,12.1-15.93,15.45-25.34s5.44-19.22,8.29-28.8C214.9,94.76,228.92,69.42,231.3,41.21Z"/><path class="cls-10" d="M179.8,106.9a22.63,22.63,0,0,0,5.32,7.78q2.37-1.5,4.75-3"/><path class="cls-10" d="M211.53,67.58,214,75.51a1.55,1.55,0,0,0,.37.72,1.53,1.53,0,0,0,1.39.13A65,65,0,0,0,223.47,74"/><path class="cls-10" d="M201.87,78.38a40,40,0,0,1,3,7.11l6.21-.37a4.87,4.87,0,0,1,5.79,3.54"/><path class="cls-10" d="M188.06,93.81c2.95,1.73,6.85-1.12,10.05.08,2.43.92,3.44,3.74,4.16,6.23L209.09,99l2.4,4.2"/><path class="cls-10" d="M208.52,110.85a17.38,17.38,0,0,1-1.79-2.93,3,3,0,0,0-2.8-1.65c-1.11.2-1.77,1.31-2.47,2.19s-2,1.67-2.89,1a3.13,3.13,0,0,1-.93-1.83,8.13,8.13,0,0,0-3.94-4.83"/><path class="cls-10" d="M205.7,127.21l-4-5.4a2.55,2.55,0,0,0-.66-.69c-.8-.5-1.84,0-2.62.49a19.92,19.92,0,0,1-3.84,2.44c-1.42.53-3.26.4-4.17-.82"/><path class="cls-10" d="M200.65,141.83l-3.44-5.06-5.39,4.75a11.11,11.11,0,0,0-4.74-4.37"/><path class="cls-10" d="M192.36,160.45c-.68-1.87-1.37-3.73-2.05-5.6a1.8,1.8,0,0,0-.82-1.15,1.88,1.88,0,0,0-1.61.33l-5.51,3.11"/><path class="cls-10" d="M186,169.79,184,166.15l-7.43,5.42a2.85,2.85,0,0,1-1.1.58,1,1,0,0,1-1.08-.44"/><path class="cls-9" d="M193.67,17.77c-7.77,52.8-53.95,94.58-58.79,147.73-.59,6.53-.29,13.82,4.18,18.63,4.91,5.3,13.58,5.68,20.06,2.49s11.12-9.2,14.76-15.43c12-20.54,15.48-44.81,18.27-68.43C195.46,74.7,198.11,46.24,193.67,17.77Z"/><path class="cls-10" d="M184.1,56.66a10.87,10.87,0,0,0,5,6.11,33.89,33.89,0,0,1,5.13-4.51"/><path class="cls-10" d="M177.35,70.74a8.09,8.09,0,0,0,.79,2.7A2.76,2.76,0,0,0,180.38,75c1.91,0,3.22-2.52,5.11-2.28a3.36,3.36,0,0,1,2.06,1.46A13.88,13.88,0,0,1,189.28,77c.1.23.26.5.51.48a.59.59,0,0,0,.35-.21l3.11-3"/><path class="cls-10" d="M170.12,86.49c.95.54,2.06-.32,3.13-.52,1.78-.34,3.38,1.23,4.14,2.87s1.09,3.51,2.18,5l4.76-3.17a14.56,14.56,0,0,0,1.56,4.57,2.45,2.45,0,0,0,.93,1.08c.9.47,2-.18,2.73-.84s1.68-1.43,2.66-1.19"/><path class="cls-10" d="M161.84,96.37l3.48,10a13.88,13.88,0,0,1,3.57-2.87,4.8,4.8,0,0,1,4.42-.11,7.09,7.09,0,0,1,2.35,2.81q1.17,2,2.33,4a4.19,4.19,0,0,0,1.64,1.86c1.36.66,3-.27,4-1.34s2.1-2.37,3.58-2.65a10.66,10.66,0,0,0,2.62,5.07"/><path class="cls-10" d="M149.75,119.52l7.35-3a16.17,16.17,0,0,0,2,6.11c1.19,1.8,3.38,3.13,5.48,2.64s3.83-2.65,6-2.27c3.46.62,3.28,6.87,6.73,7.52a5.07,5.07,0,0,0,3.7-1.28,6.94,6.94,0,0,1,3.59-1.69c1.34,0,2.77,1.29,2.27,2.53"/><path class="cls-10" d="M142.74,137.76l6-3.71,8.37,8.73a6.08,6.08,0,0,0,1.79,1.45c1.79.81,3.85-.27,5.38-1.5s3.06-2.73,5-2.91l3.51,10.85a49.4,49.4,0,0,1,10-2.61"/><path class="cls-10" d="M174.9,168.68q-2.13-5.15-4.27-10.29l-8.59,7.2c-1.58-1.77-1.82-4.53-2.43-7s-2.14-5.09-4.35-4.94a5.49,5.49,0,0,0-2.79,1.4l-9.56,7.33a30.14,30.14,0,0,0-3.78-7.39"/><path class="cls-10" d="M136.69,171.89a5.37,5.37,0,0,0,6.44,2.37,4.11,4.11,0,0,1,1.68-.49c.93.06,1.58,1,1.89,1.85a9.35,9.35,0,0,0,1,2.61c1.25,1.66,3.89,1.31,5.66.24s3.27-2.69,5.26-3.26a5.39,5.39,0,0,0,6.35,4"/></g></g></g></svg>