<svg xmlns="http://www.w3.org/2000/svg" viewBox="0 0 322.92 1194.7"><defs><style>.cls-1,.cls-11,.cls-12,.cls-13,.cls-14,.cls-15,.cls-16,.cls-17,.cls-18,.cls-19,.cls-2,.cls-20,.cls-21,.cls-25,.cls-26,.cls-27,.cls-28,.cls-29,.cls-3,.cls-30,.cls-33,.cls-4,.cls-5,.cls-6,.cls-7{fill:#c2e9b4;}.cls-1,.cls-11,.cls-12,.cls-13,.cls-14,.cls-15,.cls-16,.cls-17,.cls-18,.cls-19,.cls-2,.cls-20,.cls-21,.cls-24,.cls-25,.cls-26,.cls-27,.cls-28,.cls-29,.cls-3,.cls-30,.cls-33,.cls-4,.cls-5,.cls-6,.cls-7{stroke:#3f6432;}.cls-1,.cls-24,.cls-8,.cls-9{stroke-miterlimit:10;}.cls-1{stroke-width:3px;}.cls-2{stroke-miterlimit:10;stroke-width:3px;}.cls-3{stroke-miterlimit:10;stroke-width:3px;}.cls-4{stroke-miterlimit:10;stroke-width:3px;}.cls-5{stroke-miterlimit:10;stroke-width:3px;}.cls-6{stroke-miterlimit:10;stroke-width:3px;}.cls-7{stroke-miterlimit:10;stroke-width:3px;}.cls-8{fill:#a1a3a7;}.cls-8,.cls-9{stroke:#544d4d;}.cls-22,.cls-23,.cls-8,.cls-9{stroke-width:10px;}.cls-9{fill:#421606;}.cls-10{fill:#f0fff6;}.cls-11{stroke-miterlimit:10;stroke-width:3px;}.cls-12{stroke-miterlimit:10;stroke-width:3px;}.cls-13{stroke-miterlimit:10;stroke-width:3px;}.cls-14{stroke-miterlimit:10;stroke-width:3px;}.cls-15{stroke-miterlimit:10;stroke-width:3px;}.cls-16{stroke-miterlimit:10;stroke-width:3px;}.cls-17{stroke-miterlimit:10;stroke-width:3px;}.cls-18{stroke-miterlimit:10;stroke-width:3px;}.cls-19{stroke-miterlimit:10;stroke-width:3px;}.cls-20{stroke-miterlimit:10;stroke-width:3px;}.cls-21{stroke-miterlimit:10;stroke-width:3px;}.cls-22,.cls-23,.cls-24,.cls-36,.cls-37,.cls-38{fill:none;stroke-linecap:round;}.cls-22{stroke:#e3a7a3;}.cls-22,.cls-23,.cls-36,.cls-37,.cls-38{stroke-linejoin:round;}.cls-23{stroke:#c9756f;}.cls-24{stroke-width:4px;}.cls-25{stroke-miterlimit:10;stroke-width:3px;}.cls-26{stroke-miterlimit:10;stroke-width:3px;}.cls-27{stroke-miterlimit:10;stroke-width:3px;}.cls-28,.cls-33{stroke-miterlimit:10;}.cls-28{stroke-width:3px;}.cls-29{stroke-miterlimit:10;stroke-width:3px;}.cls-30{stroke-miterlimit:10;stroke-width:3px;}.cls-31{fill:#7da7fa;}.cls-32{fill:#ccfce0;}.cls-33{stroke-width:3px;}.cls-34{fill:#fac0c7;}.cls-35{fill:#525252;}.cls-36{stroke:#ffdf3d;}.cls-36,.cls-37,.cls-38{stroke-width:15px;}.cls-37{stroke:#c7b767;}.cls-38{stroke:#757575;}</style></defs><g id="Layer_2" data-name="Layer 2"><g id="Layer_1-2" data-name="Layer 1"><g id="Layer_3" data-name="Layer 3"><circle class="cls-1" cx="252.5" cy="732.51" r="15"/><circle class="cls-1" cx="252.5" cy="653" r="15"/><ellipse class="cls-1" cx="256.5" cy="755.87" rx="14" ry="13.58"/><circle class="cls-1" cx="256.5" cy="687.29" r="15"/><ellipse class="cls-1" cx="252.5" cy="710.25" rx="16.75" ry="16.25"/><ellipse class="cls-1" cx="256.5" cy="779.76" rx="16.87" ry="16.36"/><ellipse class="cls-1" cx="245.19" cy="822.26" rx="11.31" ry="12.48"/><ellipse class="cls-1" cx="256.5" cy="804.39" rx="14" ry="13.58"/><ellipse class="cls-1" cx="258.37" cy="842.26" rx="15" ry="13.5"/><circle class="cls-1" cx="251.5" cy="863.26" r="9"/><ellipse class="cls-2" cx="255.61" cy="980.84" rx="11.91" ry="10.21" transform="translate(-76.69 23.26) rotate(-4.53)"/><ellipse class="cls-1" cx="256.5" cy="895.16" rx="11" ry="10.38"/><ellipse class="cls-3" cx="251.56" cy="880.26" rx="10.05" ry="10.98" transform="translate(-68.67 22.59) rotate(-4.53)"/><ellipse class="cls-4" cx="251.59" cy="998.95" rx="10.7" ry="10.75" transform="translate(-77.05 22.63) rotate(-4.47)"/><ellipse class="cls-3" cx="262.91" cy="1017.97" rx="7.61" ry="8.8" transform="translate(-79.5 23.92) rotate(-4.53)"/><ellipse class="cls-2" cx="258.44" cy="912.74" rx="11.49" ry="9" transform="translate(-71.3 23.27) rotate(-4.53)"/><ellipse class="cls-5" cx="255.54" cy="931.31" rx="14.4" ry="12.5" transform="translate(-583.69 453.47) rotate(-45)"/><ellipse class="cls-6" cx="254.39" cy="964.29" rx="11" ry="11.5" transform="translate(-75.19 23.04) rotate(-4.52)"/><ellipse class="cls-3" cx="256.53" cy="1009.18" rx="7.61" ry="8.8" transform="translate(-78.82 23.39) rotate(-4.53)"/><ellipse class="cls-7" cx="253.19" cy="949.97" rx="9.29" ry="9.27" transform="translate(-73.61 22.74) rotate(-4.49)"/><path class="cls-8" d="M154.74,555c-56,0-125.81,35.45-130.29,64.78C10.6,710.5,55.73,727.92,89.87,748.43s87.18,21.94,125.64,10,55.43-32.93,76.07-72.64c9.35-18,5.48-62.15.19-81.56S218.91,555,154.74,555Z"/><ellipse class="cls-9" cx="159.57" cy="622.62" rx="121" ry="48.04"/><polygon class="cls-10" points="283 656.91 262.59 669.06 278.85 680.29 283 656.91"/><ellipse class="cls-11" cx="104.17" cy="649.83" rx="13.27" ry="13.44" transform="translate(-551.81 702.86) rotate(-85.51)"/><ellipse class="cls-11" cx="90.73" cy="660.99" rx="13.27" ry="13.44" transform="translate(-575.33 699.75) rotate(-85.51)"/><circle class="cls-12" cx="166.35" cy="653.74" r="16"/><ellipse class="cls-13" cx="113.57" cy="632.51" rx="15.78" ry="15.54" transform="translate(-525.96 695.43) rotate(-85.44)"/><ellipse class="cls-6" cx="231.87" cy="629.74" rx="16.5" ry="17.5" transform="translate(-414.17 811.27) rotate(-85.48)"/><ellipse class="cls-6" cx="224.95" cy="599.67" rx="16.5" ry="17.5" transform="matrix(0.08, -1, 1, 0.08, -390.59, 776.67)"/><ellipse class="cls-14" cx="247.96" cy="618.34" rx="12" ry="12.38" transform="translate(-387.96 816.93) rotate(-85.49)"/><circle class="cls-15" cx="246.4" cy="638.97" r="17"/><circle class="cls-15" cx="238.23" cy="663.11" r="17"/><ellipse class="cls-6" cx="100.96" cy="612.26" rx="13" ry="12.5" transform="translate(-517.36 664.66) rotate(-85.48)"/><ellipse class="cls-16" cx="25.82" cy="609.87" rx="15.5" ry="15" transform="translate(-584.18 587.31) rotate(-85.46)"/><ellipse class="cls-2" cx="85.59" cy="581.81" rx="11.5" ry="12" transform="translate(-501.16 621.17) rotate(-85.47)"/><ellipse class="cls-6" cx="75.83" cy="615.4" rx="15" ry="14.5" transform="translate(-543.64 642.5) rotate(-85.48)"/><ellipse class="cls-6" cx="108.82" cy="590.51" rx="15" ry="14.5" transform="translate(-488.43 652.46) rotate(-85.48)"/><circle class="cls-15" cx="265.03" cy="632.5" r="17"/><circle class="cls-15" cx="280.1" cy="654.68" r="17"/><ellipse class="cls-6" cx="215.59" cy="615.74" rx="12" ry="13" transform="translate(-415.23 782.14) rotate(-85.48)"/><ellipse class="cls-6" cx="192.18" cy="647.63" rx="16.5" ry="17.5" transform="translate(-468.58 788.17) rotate(-85.48)"/><ellipse class="cls-6" cx="202.6" cy="626.88" rx="12" ry="13" transform="translate(-438.3 779.45) rotate(-85.48)"/><circle class="cls-17" cx="210.38" cy="653.84" r="16"/><ellipse class="cls-6" cx="50.53" cy="579.03" rx="11.5" ry="12.5" transform="translate(-530.68 583.77) rotate(-85.48)"/><ellipse class="cls-2" cx="63.06" cy="594.18" rx="11.46" ry="12.46" transform="translate(-534.25 610.11) rotate(-85.47)"/><ellipse class="cls-2" cx="108.81" cy="563.18" rx="11.46" ry="12.46" transform="translate(-461.21 627.16) rotate(-85.47)"/><ellipse class="cls-6" cx="66.15" cy="560.47" rx="11.57" ry="12.49" transform="translate(-497.79 582.25) rotate(-85.48)"/><ellipse class="cls-16" cx="110.69" cy="539.91" rx="15.19" ry="14.55" transform="translate(-436.29 607.5) rotate(-85.46)"/><ellipse class="cls-16" cx="174.7" cy="548.8" rx="15.19" ry="14.55" transform="translate(-386.21 679.49) rotate(-85.46)"/><ellipse class="cls-18" cx="85.7" cy="548.9" rx="14.32" ry="14.93" transform="translate(-468.24 591.14) rotate(-85.49)"/><ellipse class="cls-18" cx="21.2" cy="638.9" rx="14.32" ry="14.93" transform="translate(-617.39 609.75) rotate(-85.49)"/><ellipse class="cls-18" cx="17.94" cy="680.04" rx="14.32" ry="14.93" transform="translate(-661.4 644.41) rotate(-85.49)"/><ellipse class="cls-16" cx="171.26" cy="590.48" rx="15.5" ry="15" transform="translate(-430.93 714.43) rotate(-85.46)"/><ellipse class="cls-16" cx="270.25" cy="610.59" rx="15.5" ry="15" transform="translate(-359.83 831.63) rotate(-85.46)"/><ellipse class="cls-2" cx="299.53" cy="613.24" rx="18" ry="16.5" transform="translate(-335.46 863.38) rotate(-85.47)"/><ellipse class="cls-6" cx="306.94" cy="638.9" rx="13.24" ry="14.48" transform="translate(-354.16 894.54) rotate(-85.48)"/><ellipse class="cls-6" cx="305.17" cy="661.32" rx="13.24" ry="14.48" transform="translate(-378.14 913.43) rotate(-85.48)"/><ellipse class="cls-18" cx="21.19" cy="750.04" rx="14.32" ry="14.93" transform="translate(-728.19 712.13) rotate(-85.49)"/><ellipse class="cls-18" cx="36.21" cy="719.04" rx="14.32" ry="14.93" transform="translate(-683.44 698.55) rotate(-85.49)"/><ellipse class="cls-19" cx="274.88" cy="571.56" rx="11.15" ry="10.48" transform="translate(-316.63 800.37) rotate(-85.46)"/><ellipse class="cls-14" cx="141.58" cy="609.93" rx="17" ry="17.5" transform="translate(-477.59 703.13) rotate(-85.49)"/><ellipse class="cls-14" cx="130.98" cy="581.83" rx="17" ry="17.5" transform="translate(-459.35 666.68) rotate(-85.49)"/><ellipse class="cls-14" cx="194.37" cy="599.24" rx="17" ry="17.5" transform="translate(-418.3 745.9) rotate(-85.49)"/><ellipse class="cls-14" cx="74.15" cy="636.51" rx="17" ry="17.5" transform="translate(-566.22 660.4) rotate(-85.49)"/><ellipse class="cls-14" cx="148.58" cy="577.49" rx="17" ry="17.5" transform="translate(-438.81 680.22) rotate(-85.49)"/><ellipse class="cls-16" cx="259.33" cy="557.68" rx="15.5" ry="15" transform="translate(-317.13 772.03) rotate(-85.46)"/><ellipse class="cls-6" cx="183.93" cy="613.27" rx="12.63" ry="14.3" transform="matrix(0.08, -1, 1, 0.08, -441.93, 748.31)"/><ellipse class="cls-13" cx="139.21" cy="638.99" rx="15.78" ry="15.54" transform="translate(-508.83 726.96) rotate(-85.44)"/><ellipse class="cls-16" cx="250.34" cy="587.68" rx="15.5" ry="15" transform="translate(-355.32 790.68) rotate(-85.46)"/><ellipse class="cls-16" cx="200.05" cy="581.77" rx="15.5" ry="15" transform="translate(-395.73 735.12) rotate(-85.46)"/><ellipse class="cls-14" cx="154.64" cy="543.48" rx="17" ry="17.5" transform="translate(-399.32 654.92) rotate(-85.49)"/><ellipse class="cls-16" cx="127.07" cy="543.38" rx="15.19" ry="14.55" transform="translate(-424.67 627.01) rotate(-85.46)"/><ellipse class="cls-14" cx="168.57" cy="560.49" rx="17" ry="17.5" transform="translate(-403.43 684.48) rotate(-85.49)"/><ellipse class="cls-14" cx="197.64" cy="557.74" rx="17" ry="17.5" transform="translate(-373.92 710.93) rotate(-85.49)"/><ellipse class="cls-20" cx="231.72" cy="566.05" rx="13.94" ry="14.3" transform="translate(-350.78 752.62) rotate(-85.5)"/><ellipse class="cls-16" cx="218.7" cy="577.38" rx="15.19" ry="14.55" transform="translate(-374.19 749.68) rotate(-85.46)"/><ellipse class="cls-14" cx="168.6" cy="629.78" rx="17.5" ry="18" transform="translate(-472.48 748.35) rotate(-85.49)"/><ellipse class="cls-21" cx="215.02" cy="543.43" rx="15.47" ry="15.54" transform="translate(-343.28 716.2) rotate(-85.61)"/><path class="cls-22" d="M194.07,765.49a53.08,53.08,0,0,0-39.19,11.08"/><path class="cls-23" d="M205.62,979.52c-8.38-11-11.82-25.06-12.39-38.85s1.52-27.55,3.15-41.26c4.78-40.44,5.4-82.2-3.07-124.5C208.05,802,216.4,832.34,220.15,863c1.76,14.39,2.52,29,.36,43.36-2.09,13.81-6.85,27.13-8.59,41s.06,29.12,9.4,39.51"/><path class="cls-22" d="M182.35,776.12A416.77,416.77,0,0,0,159,838.51c-3.39,11.84-6.27,23.93-6.68,36.24-.63,18.75,4.47,37.15,7.62,55.65s4.16,38.35-4,55.22"/><path class="cls-23" d="M175.35,777.13l4.53,73.57c1.54,25.06,3.36,51.09,15.62,73,9.17,16.39,23.49,29.18,37.67,41.48"/><path class="cls-22" d="M187.15,776.31c9.1,16.47,13.26,35.28,14.91,54s.91,37.61.81,56.43c-.09,17.37.36,34.84-2.28,52s-8.64,34.27-20.13,47.3"/><path class="cls-22" d="M51.33,620.82c-1.85,0-3.45,1.34-4.61,2.78A36.52,36.52,0,0,1,43.27,628c-1.37,1.25-3.41,2-5.1,1.25"/><path class="cls-22" d="M129.7,88.05q-2.85,148.88-20.42,297c-3.48,29.35-7.28,59.92,2.54,87.8,4.15-11.27,4.68-23.51,5.17-35.51,4.77-115.48,11-230.9,18.1-346.32C135,91,134.86,91,129.7,88.05Z"/><path class="cls-22" d="M144,88.94q-2.26,85-4.54,170.08c-.82,30.59-1.63,61.21-.07,91.77,1.28,25.06,4.1,50.74-2.95,74.82-1.75,6-4.14,12.06-3.52,18.27s5.56,12.59,11.79,12.12"/><path class="cls-22" d="M153.31,90c-2.32,94.57-4.63,189.21-1.45,283.76.93,27.66,2.19,56.25-7.82,82.06"/><path class="cls-23" d="M168.16,90.41c8.32,90.15,16.65,180.42,17.46,270.94.33,36.84-.54,74.16,8.28,109.93"/><path class="cls-22" d="M159.84,91q20.78,189.39,41.54,378.79"/><path class="cls-23" d="M101.46,465.09a8.82,8.82,0,0,1,8.81-7.37,9.54,9.54,0,0,1,8.73,7.72c.73,4.14-3,12-10.25,10.57"/><path class="cls-22" d="M272.3,708c17.5-21.1,17.1-54.94-.91-75.61-2.51-2.89-5.37-5.6-6.92-9.1s-1.43-8.12,1.49-10.6c4.81-4.08,12.07.55,15.93,5.54,14.73,19,17.52,45.78,10,68.63s-24.53,41.84-44.75,54.89-42.09,21.4-66.62,26.42c-37.34,7.64-80.71.6-108.11-25.89S35.18,672.66,48.44,636.94c.89-2.41,1.9-4.87,1.79-7.43s-1.69-5.28-4.22-5.74c-3.06-.57-5.64,2.22-7.33,4.83C25.2,649.44,25.37,677.23,35.27,700s41.82,67.71,69.26,57.4"/><path class="cls-23" d="M258.93,596.61c-2.45.9-5.25,2.16-5.86,4.7-.44,1.82.43,3.68,1.38,5.3a41.76,41.76,0,0,0,9,10.62,6.05,6.05,0,0,0,2.55,1.48c1.81.37,3.59-.88,4.66-2.4a11.61,11.61,0,0,0,1.43-9.5,19.44,19.44,0,0,0-5.05-8.4,9.92,9.92,0,0,0-3.37-2.5C262.33,595.38,261,595.85,258.93,596.61Z"/><path class="cls-22" d="M261.64,604.76a15.12,15.12,0,0,0,10.85,14"/><path class="cls-23" d="M55.12,609c-1.66-2.34-5.47-2.3-7.63-.42s-2.87,5-2.61,7.87a11.8,11.8,0,0,0,3.54,7.62,8.52,8.52,0,0,0,8,2.07,6.68,6.68,0,0,0,4.81-6.37C61,615.52,57.46,612.27,55.12,609Z"/><path class="cls-23" d="M200.81,764.83c-3.39,10.09-13.24,19.43-23.77,21s-23.76-5.69-29.95-14.35"/><path class="cls-23" d="M141.7,446.43c.7,2.64,2.11,5.05,2.76,7.71s.32,5.85-1.85,7.51-5,1.23-7.52.8"/><path class="cls-23" d="M196.61,457.85c3.6-1.15,7.6,1.29,9.34,4.65,1.08,2.08,1.46,4.7.27,6.72s-3.34,2.86-5.49,3.34a14.14,14.14,0,0,1-9-.66,8.69,8.69,0,0,1-5.15-7.1C186.41,461.73,189,460.28,196.61,457.85Z"/><path class="cls-22" d="M137.4,456.92a32.34,32.34,0,0,0,2.37,6.79,10.82,10.82,0,0,0,5,5"/><path class="cls-22" d="M104.54,464.77q-30.9,63.87-59.08,129c-2.3,5.33-4.28,12.34,0,16.25,3.13,2.86,8.3,2.27,11.76-.18s5.61-6.3,7.64-10Q99.08,537,129.57,472.36c3.07-6.52,7.74-14.1,14.94-13.78,5.42.24,9.39,5,12.63,9.33l93.78,125.65c2.81,3.77,8.33,7.78,11.47,4.28,2-2.26.92-5.81-.3-8.59q-25.3-57.75-54.92-113.47c-3.11-5.86-8.61-12.69-14.86-10.45-3.4,1.22-5.28,4.76-6.86,8L153.8,538.59c-6.43-27-35.83-45-39.2-72.55C112.5,462.49,105.83,462.1,104.54,464.77Z"/><path class="cls-23" d="M201.8,766.59c-11.84-1.49-22.64,6.68-34.4,8.69A34.22,34.22,0,0,1,146.1,772"/><path class="cls-22" d="M204.26,773.23c-18.37,10.89-42,15.17-64.06,11.57l6.17-2.45"/><path class="cls-24" d="M162,766a108.82,108.82,0,0,1,.94,22.6"/><path class="cls-24" d="M197.7,1180.74l-.27,12"/><circle class="cls-1" cx="159.99" cy="649.39" r="15"/><ellipse class="cls-1" cx="169.74" cy="672.14" rx="16.75" ry="16.25"/><ellipse class="cls-1" cx="165.11" cy="698.59" rx="14" ry="13.58"/><ellipse class="cls-1" cx="159.99" cy="718.38" rx="16.87" ry="16.36"/><ellipse class="cls-1" cx="165.11" cy="751.11" rx="16.87" ry="16.36"/><ellipse class="cls-1" cx="161.86" cy="797.61" rx="16.87" ry="16.36"/><ellipse class="cls-1" cx="169.74" cy="823.64" rx="13.81" ry="13.39"/><ellipse class="cls-2" cx="172.46" cy="945.72" rx="10.21" ry="11.91" transform="translate(-783.94 1042.93) rotate(-85.47)"/><ellipse class="cls-1" cx="162.46" cy="846.53" rx="14.4" ry="12.5"/><ellipse class="cls-5" cx="167.38" cy="867.05" rx="12.5" ry="14.4" transform="translate(-564.07 372.31) rotate(-45)"/><ellipse class="cls-6" cx="175.19" cy="886.26" rx="14.25" ry="14.4" transform="translate(-722.12 991.06) rotate(-85.48)"/><ellipse class="cls-4" cx="173.35" cy="987.8" rx="10.75" ry="10.7" transform="translate(-824.95 1083.68) rotate(-85.53)"/><ellipse class="cls-3" cx="169.74" cy="911.05" rx="12.53" ry="13.38" transform="translate(-751.86 1008.37) rotate(-85.47)"/><ellipse class="cls-2" cx="169.73" cy="927.09" rx="9" ry="11.49" transform="translate(-767.87 1023.06) rotate(-85.47)"/><ellipse class="cls-6" cx="175.1" cy="966.28" rx="12.81" ry="12.26" transform="translate(-801.98 1064.69) rotate(-85.48)"/><ellipse class="cls-6" cx="176.83" cy="1021.78" rx="12.81" ry="12.26" transform="translate(-855.71 1117.55) rotate(-85.48)"/><ellipse class="cls-3" cx="184.71" cy="1041.55" rx="14.5" ry="13.5" transform="translate(-868.17 1143.52) rotate(-85.47)"/><ellipse class="cls-6" cx="184.63" cy="1077.04" rx="12" ry="11.5" transform="translate(-903.62 1176.22) rotate(-85.48)"/><ellipse class="cls-6" cx="181.71" cy="1062.72" rx="12.81" ry="12.26" transform="translate(-892.03 1160.13) rotate(-85.48)"/><ellipse class="cls-6" cx="169.71" cy="1005.29" rx="12.81" ry="12.26" transform="translate(-845.82 1095.25) rotate(-85.48)"/><ellipse class="cls-6" cx="180.16" cy="1097.96" rx="10.64" ry="10.19" transform="translate(-928.58 1191.04) rotate(-85.48)"/><ellipse class="cls-6" cx="180.16" cy="1131.03" rx="10.64" ry="10.19" transform="translate(-961.55 1221.51) rotate(-85.48)"/><ellipse class="cls-6" cx="178.7" cy="1116.39" rx="10.64" ry="10.19" transform="translate(-948.3 1206.56) rotate(-85.48)"/><ellipse class="cls-6" cx="190.35" cy="1147.39" rx="10.64" ry="10.19" transform="matrix(0.08, -1, 1, 0.08, -968.47, 1246.73)"/><ellipse class="cls-6" cx="181.96" cy="1161.39" rx="10.64" ry="10.19" transform="translate(-990.16 1251.27) rotate(-85.48)"/><ellipse class="cls-6" cx="193.72" cy="1172.03" rx="10.64" ry="10.19" transform="translate(-989.93 1272.79) rotate(-85.48)"/><polygon class="cls-10" points="178.66 728.56 165.65 732.94 179.16 742.28 178.66 728.56"/><polygon class="cls-10" points="38.07 645.26 25.06 649.64 38.57 658.98 38.07 645.26"/><ellipse class="cls-25" cx="115.38" cy="702.71" rx="15.44" ry="16.64" transform="translate(-90.16 20.9) rotate(-7.45)"/><ellipse class="cls-25" cx="122.86" cy="788.07" rx="9.63" ry="10.97" transform="translate(-101.17 22.59) rotate(-7.45)"/><ellipse class="cls-25" cx="120.88" cy="744.55" rx="12.65" ry="14.02" transform="translate(-95.54 21.97) rotate(-7.45)"/><ellipse class="cls-26" cx="116.03" cy="672.82" rx="14.65" ry="12.34" transform="translate(-86.35 20.75) rotate(-7.46)"/><ellipse class="cls-27" cx="116.8" cy="769.44" rx="12.98" ry="13.71" transform="translate(-98.73 21.63) rotate(-7.45)"/><ellipse class="cls-25" cx="120.42" cy="842.39" rx="8.53" ry="9.72" transform="translate(-108.24 22.73) rotate(-7.45)"/><ellipse class="cls-26" cx="121.76" cy="807.99" rx="12.71" ry="10.97" transform="translate(-103.85 22.64) rotate(-7.46)"/><ellipse class="cls-28" cx="119.56" cy="880.96" rx="10.05" ry="9.72" transform="translate(-113.43 23) rotate(-7.46)"/><ellipse class="cls-29" cx="118.44" cy="900.61" rx="10.86" ry="11.1" transform="translate(-115.63 22.92) rotate(-7.44)"/><ellipse class="cls-29" cx="121.11" cy="921.05" rx="10.86" ry="11.1" transform="translate(-118.25 23.44) rotate(-7.44)"/><ellipse class="cls-25" cx="121.52" cy="1021.73" rx="7.75" ry="8.45" transform="translate(-131.49 24.39) rotate(-7.45)"/><ellipse class="cls-29" cx="126.47" cy="987.75" rx="10.86" ry="11.1" transform="translate(-126.85 24.69) rotate(-7.44)"/><ellipse class="cls-29" cx="119.61" cy="1007.42" rx="10.86" ry="11.1" transform="translate(-129.45 23.97) rotate(-7.44)"/><ellipse class="cls-25" cx="129.48" cy="1038.03" rx="7.95" ry="8.45" transform="translate(-133.53 25.56) rotate(-7.45)"/><ellipse class="cls-25" cx="123.23" cy="1051.41" rx="7.95" ry="8.45" transform="translate(-135.32 24.86) rotate(-7.45)"/><ellipse class="cls-25" cx="133.1" cy="1065.68" rx="8.58" ry="9.14" transform="translate(-137.09 26.26) rotate(-7.45)"/><ellipse class="cls-25" cx="121.5" cy="1078.82" rx="7.25" ry="8.23" transform="translate(-138.89 24.87) rotate(-7.45)"/><ellipse class="cls-25" cx="113.54" cy="1089.99" rx="8.58" ry="9.37" transform="translate(-140.41 23.93) rotate(-7.45)"/><ellipse class="cls-25" cx="117.48" cy="969.97" rx="7.95" ry="8.68" transform="translate(-124.81 23.43) rotate(-7.45)"/><ellipse class="cls-29" cx="121.46" cy="965.86" rx="10.86" ry="11.1" transform="translate(-124.05 23.86) rotate(-7.44)"/><ellipse class="cls-29" cx="119.81" cy="953.27" rx="10.86" ry="11.1" transform="translate(-122.44 23.54) rotate(-7.44)"/><ellipse class="cls-25" cx="119.2" cy="861.34" rx="9.37" ry="12.62" transform="translate(-110.7 22.73) rotate(-7.45)"/><circle class="cls-30" cx="119.09" cy="826.22" r="11"/><polygon class="cls-31" points="263.84 681.61 255.59 696.11 272.09 696.11 263.84 681.61"/><circle class="cls-1" cx="236.49" cy="647.62" r="15"/><circle class="cls-1" cx="228.72" cy="621.62" r="15"/><ellipse class="cls-1" cx="245.47" cy="672.15" rx="16.75" ry="16.25"/><ellipse class="cls-1" cx="245.47" cy="701.12" rx="16.87" ry="16.36"/><ellipse class="cls-1" cx="239.35" cy="743.06" rx="16.87" ry="16.36"/><ellipse class="cls-1" cx="245.47" cy="717.49" rx="14" ry="13.58"/><ellipse class="cls-1" cx="239.35" cy="761.88" rx="15" ry="13.5"/><ellipse class="cls-1" cx="236.49" cy="790.88" rx="16.66" ry="15.5"/><ellipse class="cls-2" cx="230.6" cy="921.45" rx="11.91" ry="10.21" transform="translate(-72.07 21.1) rotate(-4.53)"/><ellipse class="cls-1" cx="239.35" cy="820.15" rx="16.96" ry="17.5"/><ellipse class="cls-6" cx="239.35" cy="846.83" rx="14.4" ry="14.25" transform="translate(-65.99 21.49) rotate(-4.52)"/><ellipse class="cls-4" cx="230.62" cy="969.56" rx="10.7" ry="10.75" transform="translate(-74.82 20.91) rotate(-4.47)"/><ellipse class="cls-3" cx="230.56" cy="904.7" rx="13.38" ry="12.53" transform="translate(-70.66 21.01) rotate(-4.53)"/><ellipse class="cls-2" cx="230.6" cy="886.35" rx="11.49" ry="9" transform="translate(-69.3 20.99) rotate(-4.53)"/><ellipse class="cls-5" cx="230.52" cy="867.67" rx="14.4" ry="12.5" transform="translate(-546.01 417.14) rotate(-45)"/><ellipse class="cls-6" cx="228.62" cy="944.85" rx="12.26" ry="12.81" transform="translate(-73.74 20.95) rotate(-4.52)"/><ellipse class="cls-6" cx="224.96" cy="999.44" rx="12.26" ry="12.81" transform="translate(-78.06 20.83) rotate(-4.52)"/><ellipse class="cls-3" cx="225.83" cy="1018.63" rx="13.5" ry="14.5" transform="matrix(1, -0.08, 0.08, 1, -79.66, 20.99)"/><ellipse class="cls-6" cx="225.83" cy="1048.69" rx="11.5" ry="12" transform="translate(-81.93 21.06) rotate(-4.52)"/><ellipse class="cls-6" cx="219.85" cy="1037.37" rx="12.26" ry="12.81" transform="translate(-81.06 20.55) rotate(-4.52)"/><ellipse class="cls-6" cx="225.83" cy="986.63" rx="12.26" ry="12.81" transform="translate(-77.04 20.86) rotate(-4.52)"/><ellipse class="cls-6" cx="215.64" cy="1056.58" rx="10.19" ry="10.64" transform="matrix(1, -0.08, 0.08, 1, -82.59, 20.28)"/><ellipse class="cls-6" cx="224.96" cy="1077.85" rx="10.19" ry="10.64" transform="translate(-84.23 21.08) rotate(-4.52)"/><ellipse class="cls-6" cx="225.83" cy="1067.22" rx="10.19" ry="10.64" transform="translate(-83.39 21.11) rotate(-4.52)"/><ellipse class="cls-6" cx="224.96" cy="1102.03" rx="10.19" ry="10.64" transform="translate(-86.14 21.15) rotate(-4.52)"/><ellipse class="cls-6" cx="225.83" cy="1113.05" rx="10.19" ry="10.64" transform="translate(-87.01 21.26) rotate(-4.52)"/><ellipse class="cls-6" cx="215.64" cy="1086.05" rx="10.19" ry="10.64" transform="translate(-84.91 20.37) rotate(-4.52)"/><circle class="cls-1" cx="159.99" cy="649.39" r="15"/><ellipse class="cls-1" cx="169.74" cy="672.14" rx="16.75" ry="16.25"/><ellipse class="cls-1" cx="165.11" cy="698.59" rx="14" ry="13.58"/><ellipse class="cls-1" cx="159.99" cy="718.38" rx="16.87" ry="16.36"/><ellipse class="cls-1" cx="165.11" cy="751.11" rx="16.87" ry="16.36"/><ellipse class="cls-1" cx="161.86" cy="797.61" rx="16.87" ry="16.36"/><ellipse class="cls-1" cx="169.74" cy="823.64" rx="13.81" ry="13.39"/><ellipse class="cls-2" cx="172.46" cy="945.72" rx="10.21" ry="11.91" transform="translate(-783.94 1042.93) rotate(-85.47)"/><ellipse class="cls-1" cx="162.46" cy="846.53" rx="14.4" ry="12.5"/><ellipse class="cls-5" cx="167.38" cy="867.05" rx="12.5" ry="14.4" transform="translate(-564.07 372.31) rotate(-45)"/><ellipse class="cls-6" cx="175.19" cy="886.26" rx="14.25" ry="14.4" transform="translate(-722.12 991.06) rotate(-85.48)"/><ellipse class="cls-4" cx="173.35" cy="987.8" rx="10.75" ry="10.7" transform="translate(-824.95 1083.68) rotate(-85.53)"/><ellipse class="cls-3" cx="169.74" cy="911.05" rx="12.53" ry="13.38" transform="translate(-751.86 1008.37) rotate(-85.47)"/><ellipse class="cls-2" cx="169.73" cy="927.09" rx="9" ry="11.49" transform="translate(-767.87 1023.06) rotate(-85.47)"/><ellipse class="cls-6" cx="175.1" cy="966.28" rx="12.81" ry="12.26" transform="translate(-801.98 1064.69) rotate(-85.48)"/><ellipse class="cls-6" cx="176.83" cy="1021.78" rx="12.81" ry="12.26" transform="translate(-855.71 1117.55) rotate(-85.48)"/><ellipse class="cls-3" cx="184.71" cy="1041.55" rx="14.5" ry="13.5" transform="translate(-868.17 1143.52) rotate(-85.47)"/><ellipse class="cls-6" cx="184.63" cy="1077.04" rx="12" ry="11.5" transform="translate(-903.62 1176.22) rotate(-85.48)"/><ellipse class="cls-6" cx="181.71" cy="1062.72" rx="12.81" ry="12.26" transform="translate(-892.03 1160.13) rotate(-85.48)"/><ellipse class="cls-6" cx="169.71" cy="1005.29" rx="12.81" ry="12.26" transform="translate(-845.82 1095.25) rotate(-85.48)"/><ellipse class="cls-6" cx="180.16" cy="1097.96" rx="10.64" ry="10.19" transform="translate(-928.58 1191.04) rotate(-85.48)"/><ellipse class="cls-6" cx="180.16" cy="1131.03" rx="10.64" ry="10.19" transform="translate(-961.55 1221.51) rotate(-85.48)"/><ellipse class="cls-6" cx="178.7" cy="1116.39" rx="10.64" ry="10.19" transform="translate(-948.3 1206.56) rotate(-85.48)"/><ellipse class="cls-6" cx="190.35" cy="1147.39" rx="10.64" ry="10.19" transform="matrix(0.08, -1, 1, 0.08, -968.47, 1246.73)"/><ellipse class="cls-6" cx="181.96" cy="1161.39" rx="10.64" ry="10.19" transform="translate(-990.16 1251.27) rotate(-85.48)"/><ellipse class="cls-6" cx="193.72" cy="1172.03" rx="10.64" ry="10.19" transform="translate(-989.93 1272.79) rotate(-85.48)"/><path class="cls-1" d="M114.64,719q.7,5.7,1.42,11.41"/><path class="cls-1" d="M118.49,930.85q-.57,5.5-1.13,11"/><path class="cls-1" d="M104.37,1094.25q-3,1.9-6,3.8"/><polygon class="cls-32" points="109.71 719.59 89.29 718.52 99.97 737.57 109.71 719.59"/><path class="cls-1" d="M288.86,721.07q-.71,5.7-1.42,11.41"/><path class="cls-1" d="M285,932.91q.57,5.51,1.13,11"/><path class="cls-1" d="M299.13,1096.31q3,1.9,6,3.8"/><circle class="cls-1" cx="74.91" cy="763.09" r="15"/><circle class="cls-1" cx="74.91" cy="683.59" r="15"/><ellipse class="cls-1" cx="70.91" cy="786.45" rx="14" ry="13.58"/><circle class="cls-1" cx="70.91" cy="717.87" r="15"/><ellipse class="cls-1" cx="74.91" cy="740.84" rx="16.75" ry="16.25"/><ellipse class="cls-1" cx="70.91" cy="810.34" rx="16.87" ry="16.36"/><ellipse class="cls-1" cx="82.22" cy="852.84" rx="11.31" ry="12.48"/><ellipse class="cls-1" cx="70.91" cy="834.97" rx="14" ry="13.58"/><ellipse class="cls-1" cx="69.05" cy="872.84" rx="15" ry="13.5"/><circle class="cls-1" cx="75.91" cy="893.84" r="9"/><ellipse class="cls-2" cx="71.79" cy="1011.3" rx="10.21" ry="11.91" transform="translate(-942.02 1002.98) rotate(-85.47)"/><ellipse class="cls-1" cx="70.91" cy="925.74" rx="11" ry="10.38"/><ellipse class="cls-3" cx="75.83" cy="910.74" rx="10.98" ry="10.05" transform="translate(-838.06 914.47) rotate(-85.47)"/><ellipse class="cls-4" cx="75.83" cy="1029.39" rx="10.75" ry="10.7" transform="translate(-956.34 1024.8) rotate(-85.53)"/><ellipse class="cls-3" cx="64.55" cy="1048.54" rx="8.8" ry="7.61" transform="translate(-985.82 1030.16) rotate(-85.47)"/><ellipse class="cls-2" cx="68.96" cy="943.2" rx="9" ry="11.49" transform="translate(-876.74 937.44) rotate(-85.47)"/><ellipse class="cls-5" cx="71.86" cy="961.89" rx="12.5" ry="14.4" transform="translate(-659.11 332.54) rotate(-45)"/><ellipse class="cls-6" cx="73.02" cy="994.83" rx="11.5" ry="11" transform="translate(-924.48 989.23) rotate(-85.48)"/><ellipse class="cls-3" cx="70.92" cy="1039.76" rx="8.8" ry="7.61" transform="translate(-971.19 1028.42) rotate(-85.47)"/><ellipse class="cls-7" cx="74.19" cy="980.61" rx="9.27" ry="9.29" transform="translate(-909.22 977.79) rotate(-85.51)"/><ellipse class="cls-25" cx="290.06" cy="704.35" rx="16.64" ry="15.44" transform="translate(-445.97 900.61) rotate(-82.55)"/><ellipse class="cls-25" cx="282.54" cy="789.66" rx="10.97" ry="9.63" transform="translate(-537.1 967.4) rotate(-82.55)"/><ellipse class="cls-25" cx="284.54" cy="746.16" rx="14.02" ry="12.65" transform="translate(-492.22 931.52) rotate(-82.55)"/><ellipse class="cls-26" cx="289.31" cy="674.59" rx="12.34" ry="14.65" transform="translate(-417.13 873.89) rotate(-82.54)"/><ellipse class="cls-27" cx="288.53" cy="770.99" rx="13.71" ry="12.98" transform="matrix(0.13, -0.99, 0.99, 0.13, -513.34, 957.17)"/><ellipse class="cls-25" cx="284.99" cy="843.99" rx="9.72" ry="8.53" transform="translate(-588.83 1017.11) rotate(-82.55)"/><ellipse class="cls-26" cx="283.57" cy="809.76" rx="10.97" ry="12.71" transform="translate(-556.15 985.82) rotate(-82.54)"/><ellipse class="cls-33" cx="285.76" cy="882.69" rx="9.72" ry="10.05" transform="translate(-626.57 1051.37) rotate(-82.54)"/><ellipse class="cls-29" cx="286.93" cy="902.23" rx="11.1" ry="10.86" transform="translate(-644.86 1069.91) rotate(-82.56)"/><ellipse class="cls-29" cx="284.25" cy="922.67" rx="11.1" ry="10.86" transform="translate(-667.46 1085.05) rotate(-82.56)"/><ellipse class="cls-25" cx="283.93" cy="1023.35" rx="8.45" ry="7.75" transform="translate(-767.61 1172.16) rotate(-82.55)"/><ellipse class="cls-29" cx="278.89" cy="989.37" rx="11.1" ry="10.86" transform="translate(-738.26 1137.79) rotate(-82.56)"/><ellipse class="cls-29" cx="285.76" cy="1009.04" rx="11.1" ry="10.86" transform="matrix(0.13, -0.99, 0.99, 0.13, -751.79, 1161.73)"/><ellipse class="cls-25" cx="276.01" cy="1039.7" rx="8.45" ry="7.95" transform="translate(-790.71 1178.53) rotate(-82.55)"/><ellipse class="cls-25" cx="282.26" cy="1053.08" rx="8.45" ry="7.95" transform="translate(-798.54 1196.38) rotate(-82.55)"/><ellipse class="cls-25" cx="272.39" cy="1067.35" rx="9.14" ry="8.58" transform="translate(-821.27 1199.01) rotate(-82.55)"/><ellipse class="cls-25" cx="283.93" cy="1080.4" rx="8.23" ry="7.25" transform="translate(-824.18 1221.81) rotate(-82.55)"/><ellipse class="cls-25" cx="291.91" cy="1091.61" rx="9.37" ry="8.58" transform="matrix(0.13, -0.99, 0.99, 0.13, -828.34, 1239.48)"/><ellipse class="cls-25" cx="287.96" cy="971.6" rx="8.68" ry="7.95" transform="translate(-712.79 1131.12) rotate(-82.55)"/><ellipse class="cls-29" cx="283.9" cy="967.47" rx="11.1" ry="10.86" transform="translate(-712.18 1123.7) rotate(-82.56)"/><ellipse class="cls-29" cx="285.55" cy="954.88" rx="11.1" ry="10.86" transform="translate(-698.27 1114.37) rotate(-82.56)"/><ellipse class="cls-25" cx="286.18" cy="862.9" rx="12.62" ry="9.37" transform="translate(-606.54 1034.75) rotate(-82.55)"/><circle class="cls-30" cx="286.26" cy="827.79" r="11"/><circle class="cls-1" cx="27.35" cy="631.45" r="15"/><circle class="cls-1" cx="35.12" cy="605.45" r="15"/><circle class="cls-1" cx="154.64" cy="538.32" r="15"/><ellipse class="cls-1" cx="18.37" cy="655.98" rx="16.75" ry="16.25"/><ellipse class="cls-1" cx="18.37" cy="684.95" rx="16.87" ry="16.36"/><ellipse class="cls-1" cx="24.5" cy="726.89" rx="16.87" ry="16.36"/><ellipse class="cls-1" cx="18.37" cy="701.31" rx="14" ry="13.58"/><ellipse class="cls-1" cx="24.5" cy="745.7" rx="15" ry="13.5"/><ellipse class="cls-1" cx="27.35" cy="774.7" rx="16.66" ry="15.5"/><ellipse class="cls-2" cx="33.24" cy="905.18" rx="10.21" ry="11.91" transform="translate(-871.73 866.8) rotate(-85.47)"/><ellipse class="cls-1" cx="24.5" cy="803.97" rx="16.96" ry="17.5"/><ellipse class="cls-6" cx="24.56" cy="830.7" rx="14.25" ry="14.4" transform="translate(-805.49 789.72) rotate(-85.48)"/><ellipse class="cls-4" cx="33.22" cy="953.25" rx="10.75" ry="10.7" transform="translate(-919.72 912.12) rotate(-85.53)"/><ellipse class="cls-3" cx="33.3" cy="888.49" rx="12.53" ry="13.38" transform="translate(-855.05 851.59) rotate(-85.47)"/><ellipse class="cls-2" cx="33.23" cy="870.07" rx="9" ry="11.49" transform="translate(-836.75 834.46) rotate(-85.47)"/><ellipse class="cls-5" cx="33.3" cy="851.49" rx="12.5" ry="14.4" transform="translate(-592.34 272.94) rotate(-45)"/><ellipse class="cls-6" cx="35.22" cy="928.64" rx="12.81" ry="12.26" transform="translate(-893.31 890.58) rotate(-85.48)"/><ellipse class="cls-6" cx="38.87" cy="983.23" rx="12.81" ry="12.26" transform="translate(-944.36 944.5) rotate(-85.48)"/><ellipse class="cls-3" cx="38.1" cy="1002.5" rx="14.5" ry="13.5" transform="translate(-964.28 961.39) rotate(-85.47)"/><ellipse class="cls-6" cx="38.01" cy="1032.48" rx="12" ry="11.5" transform="translate(-994.26 989.02) rotate(-85.48)"/><ellipse class="cls-6" cx="43.99" cy="1021.17" rx="12.81" ry="12.26" transform="translate(-977.47 984.55) rotate(-85.48)"/><ellipse class="cls-6" cx="38.01" cy="970.42" rx="12.81" ry="12.26" transform="translate(-932.39 931.84) rotate(-85.48)"/><ellipse class="cls-6" cx="48.19" cy="1040.37" rx="10.64" ry="10.19" transform="translate(-992.74 1006.43) rotate(-85.48)"/><ellipse class="cls-6" cx="38.88" cy="1061.64" rx="10.64" ry="10.19" transform="translate(-1022.53 1016.74) rotate(-85.48)"/><ellipse class="cls-6" cx="38.01" cy="1051.01" rx="10.64" ry="10.19" transform="translate(-1012.73 1006.07) rotate(-85.48)"/><ellipse class="cls-6" cx="38.88" cy="1085.82" rx="10.64" ry="10.19" transform="translate(-1046.63 1039.02) rotate(-85.48)"/><ellipse class="cls-6" cx="38" cy="1096.84" rx="10.64" ry="10.19" transform="translate(-1058.42 1048.29) rotate(-85.48)"/><ellipse class="cls-6" cx="48.2" cy="1069.84" rx="10.64" ry="10.19" transform="matrix(0.08, -1, 1, 0.08, -1022.11, 1033.58)"/><polygon class="cls-31" points="194.31 681.61 183.2 700.61 205.43 700.61 194.31 681.61"/><polygon class="cls-34" points="141.62 682.01 142.71 695.7 155.05 684.87 141.62 682.01"/><polygon class="cls-34" points="201.13 722.78 203.93 747.1 224.87 728.72 201.13 722.78"/><polygon class="cls-34" points="49.62 667.92 50.71 681.61 63.05 670.77 49.62 667.92"/><polygon class="cls-32" points="225.71 679.02 212.1 677.24 220.14 691.57 225.71 679.02"/><ellipse class="cls-35" cx="212.27" cy="696.11" rx="2.29" ry="2.56"/><ellipse class="cls-35" cx="268.26" cy="678.23" rx="2.29" ry="2.56"/><ellipse class="cls-35" cx="263.84" cy="716.15" rx="2.29" ry="2.56"/><ellipse class="cls-35" cx="189.19" cy="718.9" rx="2.5" ry="2.75"/><circle class="cls-35" cx="191.32" cy="745.53" r="2.12"/><circle class="cls-35" cx="129.59" cy="721.65" r="2.12"/><ellipse class="cls-35" cx="143.12" cy="741.21" rx="3.48" ry="3.19"/><ellipse class="cls-35" cx="130.97" cy="685.93" rx="1.38" ry="1.59"/><path class="cls-35" d="M87.35,701.69A1.61,1.61,0,1,1,86,703.28,1.5,1.5,0,0,1,87.35,701.69Z"/><ellipse class="cls-35" cx="98.36" cy="688.86" rx="1.38" ry="1.59"/><ellipse class="cls-35" cx="58.46" cy="700.28" rx="4" ry="4.18"/><ellipse class="cls-35" cx="54.46" cy="658.98" rx="4" ry="4.18"/><ellipse class="cls-35" cx="223.32" cy="716.15" rx="4" ry="4.18"/><circle class="cls-36" cx="146.6" cy="56.74" r="35.11"/><ellipse class="cls-37" cx="146.6" cy="56.74" rx="31" ry="29"/><path class="cls-38" d="M146.17,7.5,147,35.75"/></g></g></g></svg>